<?xml version="1.0" encoding="UTF-8"?>
<svg width="48px" height="48px" viewBox="0 0 48 48" version="1.1" xmlns="http://www.w3.org/2000/svg" xmlns:xlink="http://www.w3.org/1999/xlink">
    <title>Cosmetic Dental Medical Loan</title>
    <g id="Cosmetic-Dental-Medical-Loan" stroke="none" stroke-width="1" fill="none" fill-rule="evenodd">
        <rect id="Rectangle" fill="#FEFEFE" x="0" y="0" width="48" height="48"></rect>
        <g id="red-cross" fill-rule="nonzero">
            <path d="M47.0361562,13.590375 L34.409625,13.590375 L34.409625,0.96384375 C34.409625,0.43153125 33.9780937,0 33.4457812,0 L14.5542188,0 C14.0219063,0 13.590375,0.43153125 13.590375,0.96384375 L13.590375,13.590375 L0.96384375,13.590375 C0.43153125,13.590375 0,14.0219063 0,14.5542188 L0,33.4457812 C0,33.9780937 0.43153125,34.409625 0.96384375,34.409625 L13.590375,34.409625 L13.590375,47.0361562 C13.590375,47.5684688 14.0219063,48 14.5542188,48 L33.4457812,48 C33.9780937,48 34.409625,47.5684688 34.409625,47.0361562 L34.409625,34.409625 L47.0361562,34.409625 C47.5684688,34.409625 48,33.9780937 48,33.4457812 L48,14.5542188 C48,14.0219063 47.5684688,13.590375 47.0361562,13.590375 Z M46.0723125,32.4819375 L33.4457812,32.4819375 C32.9134687,32.4819375 32.4819375,32.9134687 32.4819375,33.4457812 L32.4819375,46.0723125 L15.5180625,46.0723125 L15.5180625,33.4457812 C15.5180625,32.9134687 15.0865312,32.4819375 14.5542187,32.4819375 L1.9276875,32.4819375 L1.9276875,15.5180625 L14.5542187,15.5180625 C15.0865312,15.5180625 15.5180625,15.0865313 15.5180625,14.5542188 L15.5180625,1.9276875 L32.4819375,1.9276875 L32.4819375,14.5542188 C32.4819375,15.0865313 32.9134687,15.5180625 33.4457813,15.5180625 L46.0723125,15.5180625 L46.0723125,32.4819375 Z" id="Shape" fill="#00A76A"></path>
            <path d="M20.530125,43.3735312 L20.241,43.3735312 C19.7086875,43.3735312 19.2771563,43.8050625 19.2771563,44.337375 C19.2771563,44.8696875 19.7086875,45.3012188 20.241,45.3012188 L20.530125,45.3012188 C21.0624375,45.3012188 21.4939688,44.8696875 21.4939688,44.337375 C21.4939688,43.8049688 21.0624375,43.3735312 20.530125,43.3735312 Z" id="Path" fill="#FFC845"></path>
            <path d="M30.747,43.3735312 L23.6145,43.3735312 C23.0821875,43.3735312 22.6506563,43.8050625 22.6506563,44.337375 C22.6506563,44.8696875 23.0821875,45.3012188 23.6145,45.3012188 L30.747,45.3012188 C31.2793125,45.3012188 31.7108438,44.8696875 31.7108438,44.337375 C31.7108438,43.8049688 31.2793125,43.3735312 30.747,43.3735312 Z" id="Path" fill="#FFC845"></path>
        </g>
    </g>
</svg>