<?xml version="1.0" encoding="UTF-8"?>
<svg width="48px" height="48px" viewBox="0 0 48 48" version="1.1" xmlns="http://www.w3.org/2000/svg" xmlns:xlink="http://www.w3.org/1999/xlink">
    <title>Education Loan</title>
    <g id="Education-Loan" stroke="none" stroke-width="1" fill="none" fill-rule="evenodd">
        <rect id="Rectangle" fill="#FEFEFE" x="0" y="0" width="48" height="48"></rect>
        <g id="diploma" transform="translate(0.000000, 4.000000)" fill-rule="nonzero">
            <path d="M47.296875,0.0075 L0.703125,0.0075 C0.3148125,0.0075 0,0.3223125 0,0.710625 L0,35.2801875 C0,35.6685937 0.3148125,35.9833125 0.703125,35.9833125 L33.0184687,35.9833125 C33.4067813,35.9833125 33.7215937,35.6685937 33.7215937,35.2801875 C33.7215937,34.891875 33.4067813,34.5770625 33.0184687,34.5770625 L1.40625,34.5770625 L1.40625,1.41375 L46.59375,1.41375 L46.59375,34.5770625 L43.539375,34.5770625 C43.1510625,34.5770625 42.83625,34.891875 42.83625,35.2801875 C42.83625,35.6685937 43.1510625,35.9833125 43.539375,35.9833125 L47.296875,35.9833125 C47.6851875,35.9833125 48,35.6685937 48,35.2801875 L48,0.710625 C48,0.32221875 47.6851875,0.0075 47.296875,0.0075 Z" id="Path" fill="#00A76A"></path>
            <path d="M38.2786875,22.5527812 C35.4045937,22.5527812 33.0664687,24.8909062 33.0664687,27.765 C33.0664687,29.5412812 33.9602813,31.1120625 35.3210625,32.0535 L35.3210625,39.7892812 C35.3210625,40.0485937 35.46375,40.2868125 35.6924062,40.40925 C35.9209688,40.5315937 36.1984688,40.5181875 36.4141875,40.374375 L38.2786875,39.1313437 L40.1431875,40.374375 C40.2608437,40.4528437 40.396875,40.4925 40.5332812,40.4925 C40.647,40.4925 40.7610938,40.4649375 40.8650625,40.4093437 C41.093625,40.287 41.2364062,40.0486875 41.2364062,39.789375 L41.2364062,32.0535937 C42.5971875,31.1120625 43.4909062,29.5412812 43.4909062,27.765 C43.4909062,24.891 41.1527813,22.5527812 38.2786875,22.5527812 Z M39.8301563,38.475375 L38.6687813,37.7010937 C38.4325313,37.5436875 38.1249375,37.5436875 37.8887813,37.7010937 L36.7274063,38.475375 L36.7274063,32.7414375 C37.217625,32.8945312 37.7387813,32.9772187 38.2787813,32.9772187 C38.8187813,32.9772187 39.3399375,32.894625 39.8301563,32.7414375 L39.8301563,38.475375 L39.8301563,38.475375 Z M38.2786875,31.5709687 C36.18,31.5709687 34.4727187,29.8635937 34.4727187,27.765 C34.4727187,25.6664063 36.1800937,23.9590313 38.2786875,23.9590313 C40.3772812,23.9590313 42.0846562,25.6664063 42.0846562,27.765 C42.0846562,29.8635937 40.377375,31.5709687 38.2786875,31.5709687 Z" id="Shape" fill="#FFC845"></path>
            <path d="M38.2787813,25.558875 C37.062375,25.558875 36.0726563,26.5485938 36.0726563,27.765 C36.0726563,28.9814062 37.0622812,29.971125 38.2787813,29.971125 C39.4952813,29.971125 40.4849063,28.9814062 40.4849063,27.765 C40.4849063,26.5485938 39.4951875,25.558875 38.2787813,25.558875 Z M38.2787813,28.564875 C37.8377812,28.564875 37.4789062,28.2060938 37.4789062,27.765 C37.4788125,27.324 37.8376875,26.965125 38.2787813,26.965125 C38.719875,26.965125 39.0786563,27.324 39.0786563,27.765 C39.0786563,28.2060938 38.7197813,28.564875 38.2787813,28.564875 Z" id="Shape" fill="#FFC845"></path>
            <path d="M33.7695937,7.52259375 L32.2664062,7.52259375 C31.8780937,7.52259375 31.5632812,7.8373125 31.5632812,8.22571875 C31.5632812,8.61403125 31.8780937,8.92884375 32.2664062,8.92884375 L33.7695937,8.92884375 C34.1579062,8.92884375 34.4727187,8.61403125 34.4727187,8.22571875 C34.4727187,7.8373125 34.1579062,7.52259375 33.7695937,7.52259375 Z" id="Path" fill="#00A76A"></path>
            <path d="M29.2602188,7.52259375 L9.72121875,7.52259375 C9.33290625,7.52259375 9.01809375,7.8373125 9.01809375,8.22571875 C9.01809375,8.61403125 9.33290625,8.92884375 9.72121875,8.92884375 L29.2602188,8.92884375 C29.6485313,8.92884375 29.9633438,8.61403125 29.9633438,8.22571875 C29.9633438,7.8373125 29.6485313,7.52259375 29.2602188,7.52259375 Z" id="Path" fill="#00A76A"></path>
            <path d="M33.7695937,15.0376875 L14.2306875,15.0376875 C13.842375,15.0376875 13.5275625,15.3525 13.5275625,15.7408125 C13.5275625,16.129125 13.842375,16.4439375 14.2306875,16.4439375 L33.7696875,16.4439375 C34.158,16.4439375 34.4727187,16.129125 34.4727187,15.7408125 C34.4727187,15.3525 34.1579062,15.0376875 33.7695937,15.0376875 Z" id="Path" fill="#00A76A"></path>
            <path d="M11.2244063,15.0376875 L9.72121875,15.0376875 C9.33290625,15.0376875 9.01809375,15.3525 9.01809375,15.7408125 C9.01809375,16.129125 9.33290625,16.4439375 9.72121875,16.4439375 L11.2244063,16.4439375 C11.6127188,16.4439375 11.9275313,16.129125 11.9275313,15.7408125 C11.9275313,15.3525 11.6127188,15.0376875 11.2244063,15.0376875 Z" id="Path" fill="#00A76A"></path>
            <path d="M29.2605937,22.5527812 L9.72121875,22.5527812 C9.33290625,22.5527812 9.01809375,22.8675937 9.01809375,23.2559062 C9.01809375,23.6442188 9.33290625,23.9590312 9.72121875,23.9590312 L29.2605,23.9590312 C29.6488125,23.9590312 29.963625,23.6442188 29.963625,23.2559062 C29.963625,22.8675937 29.6489062,22.5527812 29.2605937,22.5527812 Z" id="Path" fill="#00A76A"></path>
            <path d="M29.2605938,26.310375 L27.7577813,26.310375 C27.3694687,26.310375 27.0546563,26.6250938 27.0546563,27.0135 C27.0546563,27.4018125 27.3694687,27.716625 27.7577813,27.716625 L29.2605937,27.716625 C29.6489062,27.716625 29.9637187,27.4018125 29.9637187,27.0135 C29.9637187,26.6251875 29.6489063,26.310375 29.2605938,26.310375 Z" id="Path" fill="#00A76A"></path>
            <path d="M24.7515,26.310375 L9.72121875,26.310375 C9.33290625,26.310375 9.01809375,26.6250938 9.01809375,27.0135 C9.01809375,27.4018125 9.33290625,27.716625 9.72121875,27.716625 L24.7515,27.716625 C25.1398125,27.716625 25.454625,27.4018125 25.454625,27.0135 C25.454625,26.6250937 25.1398125,26.310375 24.7515,26.310375 Z" id="Path" fill="#00A76A"></path>
            <path d="M38.2786875,11.2800938 L9.72121875,11.2800938 C9.33290625,11.2800938 9.01809375,11.5949063 9.01809375,11.9832188 C9.01809375,12.371625 9.33290625,12.6863438 9.72121875,12.6863438 L38.2786875,12.6863438 C38.667,12.6863438 38.9818125,12.371625 38.9818125,11.9832188 C38.9818125,11.5949063 38.667,11.2800938 38.2786875,11.2800938 Z" id="Path" fill="#00A76A"></path>
        </g>
    </g>
</svg>