<?xml version="1.0" encoding="UTF-8"?>
<svg width="48px" height="48px" viewBox="0 0 48 48" version="1.1" xmlns="http://www.w3.org/2000/svg" xmlns:xlink="http://www.w3.org/1999/xlink">
    <title>Funeral Loan</title>
    <g id="Funeral-Loan" stroke="none" stroke-width="1" fill="none" fill-rule="evenodd">
        <rect id="Rectangle" fill="#FEFEFE" x="0" y="0" width="48" height="48"></rect>
        <g id="heart" transform="translate(0.000000, 3.000000)" fill-rule="nonzero">
            <path d="M35.3279044,0.0853864542 C30.4670916,0.0853864542 26.1143904,2.85810359 24,7.07149004 C21.8856096,2.85810359 17.5329084,0.0853864542 12.6720956,0.0853864542 C5.68465339,0.0853864542 0,5.76994422 0,12.7573865 C0,18.7153147 5.50623108,24.0076494 9.9305498,28.2600478 L23.3536255,41.1611474 C23.5365418,41.3288606 23.7682231,41.4127171 24,41.4127171 C24.2324462,41.4127171 24.464988,41.3283825 24.648,41.1597131 L38.0694502,28.2600478 C42.4937689,24.0075538 48,18.7151235 48,12.7573865 C48,5.77003984 42.3153466,0.0853864542 35.3279044,0.0853864542 Z M30.310757,33.1758406 C27.5557291,35.834008 25.1165259,38.1146773 23.9988526,39.153753 C22.8964781,38.1318884 20.4996335,35.8952032 17.689243,33.1804303 L17.689243,29.529753 C17.689243,27.3768287 19.4407649,25.625498 21.5935936,25.625498 L26.4063108,25.625498 C28.5592351,25.625498 30.310757,27.3768287 30.310757,29.5298486 L30.310757,33.1758406 Z M36.7442869,26.881243 C36.0061195,27.5906295 35.3089721,28.2608127 34.6517928,28.9178964 C33.8901992,29.67949 33.0776414,30.4826773 32.2231076,31.3184701 L32.2231076,29.529753 C32.2231076,26.3224542 29.6137052,23.7131474 26.4064064,23.7131474 L21.5936892,23.7131474 C18.3862948,23.7131474 15.7768924,26.3224542 15.7768924,29.5298486 L15.7768924,31.3206693 C14.9352669,30.4963506 14.1228048,29.6925896 13.3482072,28.917992 C12.6911235,28.2609084 11.9938805,27.5908207 11.2558088,26.8813386 C7.09300398,22.8802231 1.9123506,17.9008446 1.9123506,12.7573865 C1.9123506,6.82450996 6.73912351,1.99773705 12.6720956,1.99773705 C17.5539442,1.99773705 21.8318725,5.29080478 23.0754741,10.005992 C23.1861992,10.4258486 23.5658964,10.7183426 24,10.7183426 C24.4341036,10.7183426 24.8138008,10.4258486 24.9245259,10.005992 C26.1680319,5.29080478 30.4460558,1.99773705 35.3279044,1.99773705 C41.2608765,1.99773705 46.0876494,6.82441434 46.0876494,12.7573865 C46.0876494,17.9008446 40.906996,22.8802231 36.7442869,26.881243 Z" id="Shape" fill="#00A76A"></path>
            <path d="M11.84749,23.0518566 L11.5134024,22.7306773 C11.1330359,22.3643665 10.5275857,22.3759363 10.1614661,22.7563984 C9.79515538,23.1368606 9.8067251,23.7421195 10.1871873,24.1083347 L10.5222311,24.4306614 C11.0600797,24.9476653 11.5681912,25.4359841 12.0409243,25.9087171 C12.2276653,26.0954582 12.4723506,26.1887809 12.7170359,26.1887809 C12.9617211,26.1887809 13.206502,26.0954582 13.3931474,25.9087171 C13.7665339,25.5353307 13.7665339,24.9298805 13.3931474,24.5563984 C12.9071235,24.0702789 12.3924143,23.575745 11.84749,23.0518566 Z" id="Path" fill="#FFC845"></path>
            <path d="M12.7171315,3.15528287 C7.41896414,3.15528287 3.10862151,7.4656255 3.10862151,12.7637928 C3.10862151,16.2010518 5.54266135,19.2471394 7.37354582,21.2393307 C7.56210359,21.4445259 7.81950598,21.5484622 8.07776892,21.5484622 C8.30897211,21.5484622 8.54084462,21.4650837 8.7245259,21.2963187 C9.11330677,20.938996 9.13883665,20.3341195 8.78151394,19.9453386 C6.21590438,17.1535936 5.02097211,14.8715857 5.02097211,12.7637928 C5.02097211,8.52009562 8.47343426,5.06763347 12.7171315,5.06763347 C13.2452271,5.06763347 13.6733068,4.63955378 13.6733068,4.11145817 C13.6733068,3.58336255 13.2452271,3.15528287 12.7171315,3.15528287 Z" id="Path" fill="#FFC845"></path>
            <path d="M24,12.5258008 C21.2583586,12.5258008 19.0278884,14.7562709 19.0278884,17.4979124 C19.0278884,20.2395538 21.2583586,22.4700239 24,22.4700239 C26.7416414,22.4700239 28.9721116,20.2395538 28.9721116,17.4979124 C28.9721116,14.7562709 26.7416414,12.5258008 24,12.5258008 Z M24,20.5576733 C22.3128287,20.5576733 20.940239,19.1850837 20.940239,17.4979124 C20.940239,15.810741 22.3128287,14.4381514 24,14.4381514 C25.6871713,14.4381514 27.059761,15.810741 27.059761,17.4979124 C27.059761,19.1850837 25.6871713,20.5576733 24,20.5576733 Z" id="Shape" fill="#00A76A"></path>
        </g>
    </g>
</svg>