<?xml version="1.0" encoding="UTF-8"?>
<svg width="48px" height="48px" viewBox="0 0 48 48" version="1.1" xmlns="http://www.w3.org/2000/svg" xmlns:xlink="http://www.w3.org/1999/xlink">
    <title>Holiday Loan</title>
    <g id="Holiday-Loan" stroke="none" stroke-width="1" fill="none" fill-rule="evenodd">
        <g id="Group-3">
            <rect id="Rectangle" x="0" y="0" width="48" height="48"></rect>
            <path d="M38.4597311,43.0707227 L37.6388908,43.0707227 C35.5807395,39.6690756 33.8416471,36.1760672 32.4160672,32.5714286 L32.6168403,32.5714286 C33.0623529,32.5714286 33.423563,32.2102185 33.423563,31.7647059 L33.423563,28.5378151 C33.423563,28.0923025 33.0623529,27.7310924 32.6168403,27.7310924 L30.7123697,27.7310924 C29.9780504,25.3656807 29.3696807,22.9512605 28.8865546,20.4824874 L29.5769076,20.4824874 C30.0224202,20.4824874 30.3836303,20.1212773 30.3836303,19.6757647 L30.3836303,16.5616134 C30.3836303,16.116 30.0224202,15.7548908 29.5769076,15.7548908 L28.1229916,15.7548908 C27.7670252,12.9880336 27.554958,10.1541176 27.4917311,7.24305882 C27.4904202,7.18285714 27.4819496,7.12447059 27.4682353,7.06830252 L27.4682353,4.03361345 C27.4682353,3.58810084 27.1070252,3.22689076 26.6615126,3.22689076 L24.6447059,3.22689076 L24.6447059,0.806722689 C24.6447059,0.361210084 24.2834958,-1.0658141e-14 23.8379832,-1.0658141e-14 C23.3924706,-1.0658141e-14 23.0312605,0.361210084 23.0312605,0.806722689 L23.0312605,3.22689076 L21.0144538,3.22689076 C20.5689412,3.22689076 20.2077311,3.58810084 20.2077311,4.03361345 L20.2077311,7.06820168 C20.1940168,7.12436975 20.1855462,7.1827563 20.1842353,7.24295798 C20.1209076,10.153916 19.9088403,12.9879328 19.5528739,15.7547899 L18.0101176,15.7547899 C17.564605,15.7547899 17.203395,16.1158992 17.203395,16.5615126 L17.203395,19.6756639 C17.203395,20.1211765 17.564605,20.4823866 18.0101176,20.4823866 L18.7894118,20.4823866 C18.3062857,22.9512605 17.697916,25.3655798 16.9635966,27.7309916 L14.970084,27.7309916 C14.5245714,27.7309916 14.1633613,28.0922017 14.1633613,28.5377143 L14.1633613,31.764605 C14.1633613,32.2101176 14.5245714,32.5713277 14.970084,32.5713277 L15.2597983,32.5713277 C13.8341176,36.1759664 12.0952269,39.6689748 10.0371765,43.0706218 L9.21633613,43.0706218 C8.77082353,43.0706218 8.40961345,43.4317311 8.40961345,43.8773445 L8.40961345,47.1042353 C8.40961345,47.5497479 8.77082353,47.9110588 9.21633613,47.9110588 L18.5440672,47.9110588 C18.9895798,47.9110588 19.3507899,47.5497479 19.3507899,47.1042353 L19.3507899,43.8773445 C19.3507899,43.4317311 18.9895798,43.0706218 18.5440672,43.0706218 L18.2987227,43.0706218 C18.4384874,38.9725714 20.914521,35.697479 23.9387227,35.697479 C26.9629244,35.697479 29.438958,38.9725714 29.5790252,43.0707227 L29.132,43.0707227 C28.6864874,43.0707227 28.3252773,43.4318319 28.3252773,43.8774454 L28.3252773,47.1043361 C28.3252773,47.5498487 28.6864874,47.9110588 29.132,47.9110588 L38.4597311,47.9110588 C38.9052437,47.9110588 39.2664538,47.5498487 39.2664538,47.1043361 L39.2664538,43.8774454 C39.2664538,43.4318319 38.9052437,43.0707227 38.4597311,43.0707227 Z M21.8210756,4.84033613 L25.8546891,4.84033613 L25.8546891,6.45378151 L21.8210756,6.45378151 L21.8210756,4.84033613 L21.8210756,4.84033613 Z M21.7764034,8.06722689 L25.8992605,8.06722689 C25.9798319,10.6882689 26.1790924,13.2485042 26.4943193,15.7547899 L21.1813445,15.7547899 C21.4965714,13.2485042 21.6958319,10.6882689 21.7764034,8.06722689 Z M18.8166387,17.3682353 L28.7701849,17.3682353 L28.7701849,18.8689412 L18.8166387,18.8689412 L18.8166387,17.3682353 Z M20.4348235,20.4824874 L27.2408403,20.4824874 C27.7123697,22.9499496 28.305916,25.3644706 29.022084,27.7310924 L26.8689412,27.7310924 L26.8689412,26.7504202 C26.8689412,25.0669916 25.4994286,23.697479 23.8161008,23.697479 L23.7707227,23.697479 C22.0872941,23.697479 20.7177815,25.0669916 20.7177815,26.7504202 L20.7177815,27.7310924 L18.6535798,27.7310924 C19.3697479,25.3644706 19.9632941,22.9499496 20.4348235,20.4824874 Z M25.2554958,27.7310924 L22.3311261,27.7310924 L22.3311261,26.7504202 C22.3311261,25.9567059 22.9769076,25.3109244 23.7706218,25.3109244 L23.816,25.3109244 C24.6097143,25.3109244 25.255395,25.9567059 25.255395,26.7504202 L25.255395,27.7310924 L25.2554958,27.7310924 Z M15.7765042,29.3445378 L21.5244034,29.3445378 L26.0622185,29.3445378 L31.8101176,29.3445378 L31.8101176,30.9579832 L15.7765042,30.9579832 L15.7765042,29.3445378 Z M17.737042,46.2976134 L10.0227563,46.2976134 L10.0227563,44.6841681 L10.4913613,44.6841681 L17.4933109,44.6841681 L17.7369412,44.6841681 L17.7369412,46.2976134 L17.737042,46.2976134 Z M29.1460168,36.9076639 C27.770958,35.0867899 25.9216471,34.0840336 23.9387227,34.0840336 C21.9557983,34.0840336 20.1064874,35.0867899 18.7314286,36.9076639 C17.4733445,38.5735462 16.7523361,40.750084 16.683563,43.0706218 L11.9166387,43.0706218 C13.9167059,39.6667563 15.6070924,36.1733445 16.9942521,32.5713277 L30.6813109,32.5713277 C32.0684706,36.1733445 33.7588571,39.6667563 35.7589244,43.0706218 L31.1937815,43.0706218 C31.1250084,40.7501849 30.404,38.5736471 29.1460168,36.9076639 Z M37.6530084,46.2976134 L29.9387227,46.2976134 L29.9387227,44.6841681 L30.3840336,44.6841681 L37.1843025,44.6841681 C37.1851092,44.6841681 37.185916,44.6841681 37.1863193,44.6841681 L37.6530084,44.6841681 L37.6530084,46.2976134 Z" id="Shape" fill="#00A76A" fill-rule="nonzero"></path>
            <path d="M7.33465546,8.78621849 C7.48601681,8.93757983 7.69112605,9.02248739 7.90510924,9.02248739 C8.11909244,9.02248739 8.32420168,8.93747899 8.47556303,8.78621849 C8.9965042,8.26527731 9.68927731,7.97828571 10.4261176,7.97828571 C11.162958,7.97828571 11.8557311,8.26527731 12.3766723,8.78621849 C12.6916975,9.10134454 13.2024538,9.10134454 13.5175798,8.78621849 C13.832605,8.47119328 13.832605,7.96043697 13.5175798,7.64541176 C12.6918992,6.81963025 11.5939496,6.36484034 10.4261176,6.36484034 C9.51028571,6.36484034 8.63741176,6.64457143 7.90510924,7.1634958 C7.17280672,6.64457143 6.29993277,6.36484034 5.38410084,6.36484034 C4.21626891,6.36484034 3.11831933,6.81963025 2.29263866,7.64541176 C1.97761345,7.96043697 1.97761345,8.47119328 2.29263866,8.78621849 C2.60776471,9.10134454 3.11842017,9.1012437 3.43354622,8.78621849 C3.95448739,8.26527731 4.6472605,7.97828571 5.38410084,7.97828571 C6.12094118,7.97828571 6.81371429,8.26517647 7.33465546,8.78621849 Z" id="Path" fill="#FFC845" fill-rule="nonzero"></path>
            <path d="M10.7286387,14.1653445 C10.9426218,14.1653445 11.1477311,14.0803361 11.2990924,13.9290756 C11.8200336,13.4080336 12.5128067,13.1211429 13.2496471,13.1211429 C13.9864874,13.1211429 14.6792605,13.4081345 15.2002017,13.9290756 C15.5153277,14.2441008 16.0259832,14.2442017 16.3411092,13.9290756 C16.6561345,13.6140504 16.6561345,13.1032941 16.3411092,12.7882689 C15.5154286,11.9624874 14.417479,11.5076975 13.2496471,11.5076975 C12.3338151,11.5076975 11.4609412,11.7874286 10.7286387,12.3063529 C9.99633613,11.7874286 9.12346218,11.5076975 8.20763025,11.5076975 C7.03979832,11.5076975 5.94184874,11.9624874 5.11616807,12.7882689 C4.80114286,13.1032941 4.80114286,13.6141513 5.11616807,13.9290756 C5.43129412,14.2442017 5.94194958,14.2441008 6.25707563,13.9290756 C6.77801681,13.4080336 7.47078992,13.1211429 8.20763025,13.1211429 C8.94447059,13.1211429 9.6372437,13.4081345 10.1581849,13.9290756 C10.3095462,14.0803361 10.5146555,14.1653445 10.7286387,14.1653445 Z" id="Path" fill="#FFC845" fill-rule="nonzero"></path>
            <path d="M44.9797647,21.0212773 C44.154084,20.1954958 43.0561345,19.7407059 41.8883025,19.7407059 C40.9724706,19.7407059 40.0995966,20.020437 39.3672941,20.5393613 C38.6349916,20.020437 37.7621176,19.7407059 36.8462857,19.7407059 C35.6784538,19.7407059 34.5805042,20.1954958 33.7548235,21.0212773 C33.4397983,21.3363025 33.4397983,21.8470588 33.7548235,22.162084 C34.0699496,22.4772101 34.580605,22.4771092 34.8957311,22.162084 C35.4166723,21.641042 36.1094454,21.3541513 36.8462857,21.3541513 C37.5831261,21.3541513 38.2758992,21.6411429 38.7968403,22.162084 C38.9482017,22.3134454 39.1533109,22.3983529 39.3672941,22.3983529 C39.5812773,22.3983529 39.7863866,22.3133445 39.9377479,22.162084 C40.4586891,21.641042 41.1514622,21.3541513 41.8883025,21.3541513 C42.6251429,21.3541513 43.317916,21.6411429 43.8388571,22.162084 C44.1539832,22.4772101 44.6646387,22.4772101 44.9797647,22.162084 C45.2947899,21.8470588 45.2947899,21.3363025 44.9797647,21.0212773 Z" id="Path" fill="#FFC845" fill-rule="nonzero"></path>
        </g>
    </g>
</svg>