<?xml version="1.0" encoding="UTF-8"?>
<svg width="48px" height="48px" viewBox="0 0 48 48" version="1.1" xmlns="http://www.w3.org/2000/svg" xmlns:xlink="http://www.w3.org/1999/xlink">
    <title>Home Improvements</title>
    <g id="Home-Improvements" stroke="none" stroke-width="1" fill="none" fill-rule="evenodd">
        <rect id="Rectangle" fill="#FEFEFE" x="0" y="0" width="48" height="48"></rect>
        <g id="real-estate" transform="translate(0.000000, 1.000000)" fill-rule="nonzero">
            <path d="M47.92725,11.516625 L43.08675,0.51403125 C42.9495937,0.20240625 42.6414375,0.0013125 42.3010313,0.0013125 L5.69896875,0.0013125 C5.3585625,0.0013125 5.0503125,0.20240625 4.91325,0.51403125 L0.07265625,11.516625 C-0.0440625,11.7820313 -0.0189375,12.0885938 0.1395,12.3314063 C0.29803125,12.5743125 0.5685,12.7206563 0.858375,12.7206563 L2.5239375,12.7206563 L2.5239375,45.4528125 C2.5239375,45.9269063 2.9083125,46.3111875 3.3823125,46.3111875 L13.4595,46.3111875 L34.5404062,46.3111875 L44.6175938,46.3111875 C45.0916875,46.3111875 45.4759687,45.9268125 45.4759687,45.4528125 L45.4759687,21.4336875 C45.4759687,20.9595938 45.0915938,20.5753125 44.6175938,20.5753125 C44.1435938,20.5753125 43.7592188,20.9596875 43.7592188,21.4336875 L43.7592188,44.5943438 L35.398875,44.5943438 L35.398875,41.55075 C35.398875,41.0766563 35.0145,40.692375 34.5405,40.692375 L32.928375,40.692375 L32.928375,37.6487813 C32.928375,37.1746875 32.544,36.7904063 32.07,36.7904063 L29.7230625,36.7904063 L29.7230625,20.4488438 C29.7230625,19.97475 29.3386875,19.5904688 28.8646875,19.5904688 L19.1354063,19.5904688 C18.6613125,19.5904688 18.2770313,19.9748438 18.2770313,20.4488438 L18.2770313,30.6992813 C18.2770313,31.173375 18.6614063,31.5576563 19.1354063,31.5576563 C19.6095,31.5576563 19.9937813,31.1732813 19.9937813,30.6992813 L19.9937813,21.3073125 L28.006125,21.3073125 L28.006125,36.7903125 L19.9937813,36.7903125 L19.9937813,33.5950313 C19.9937813,33.1209375 19.6094063,32.7366563 19.1354062,32.7366563 C18.6613125,32.7366563 18.2770313,33.1210313 18.2770313,33.5950313 L18.2770313,36.7903125 L15.93,36.7903125 C15.4559063,36.7903125 15.071625,37.1746875 15.071625,37.6486875 L15.071625,40.6922813 L13.4595,40.6922813 C12.9854063,40.6922813 12.601125,41.0766563 12.601125,41.5506563 L12.601125,44.59425 L4.24078125,44.59425 L4.24078125,12.72075 L14.7186562,12.72075 L11.4350625,16.0043438 C11.0998125,16.3395938 11.0998125,16.8831563 11.4350625,17.2182188 C11.7703125,17.5534688 12.313875,17.5534688 12.6489375,17.2182188 L23.9998125,5.86734375 L35.3506875,17.2182188 C35.5182187,17.38575 35.7379687,17.4696563 35.957625,17.4696563 C36.1772813,17.4696563 36.3970312,17.3858438 36.5645625,17.2182188 C36.8998125,16.8829688 36.8998125,16.3394063 36.5645625,16.0043438 L33.2809687,12.72075 L43.7588437,12.72075 L43.7588437,18.5379375 C43.7588437,19.0120313 44.1432188,19.3963125 44.6172188,19.3963125 C45.0913125,19.3963125 45.4755938,19.0119375 45.4755938,18.5379375 L45.4755938,12.72075 L47.1411563,12.72075 C47.4312187,12.72075 47.7015,12.5743125 47.8600312,12.3315 C48.0189375,12.0885 48.0440625,11.7820313 47.92725,11.516625 Z M14.317875,42.409125 L26.5070625,42.409125 C26.9811563,42.409125 27.3654375,42.02475 27.3654375,41.55075 C27.3654375,41.0766562 26.9810625,40.692375 26.5070625,40.692375 L16.7885625,40.692375 L16.7885625,38.5071562 L31.211625,38.5071562 L31.211625,40.692375 L29.403,40.692375 C28.9289063,40.692375 28.544625,41.07675 28.544625,41.55075 C28.544625,42.0248438 28.929,42.409125 29.403,42.409125 L33.6823125,42.409125 L33.6823125,44.5943438 L14.317875,44.5943438 L14.317875,42.409125 Z M31.5645,11.0039063 L24.6069375,4.04634375 C24.2716875,3.71109375 23.728125,3.71109375 23.3930625,4.04634375 L16.4355,11.0039063 L2.17378125,11.0039063 L6.2589375,1.71815625 L41.7407812,1.71815625 L45.8259375,11.0039063 L31.5645,11.0039063 Z" id="Shape" fill="#00A76A"></path>
            <path d="M40.4469375,22.1965312 L33.15,22.1965312 C32.6759063,22.1965312 32.291625,22.5809062 32.291625,23.0549063 L32.291625,33.131625 C32.291625,33.6057188 32.676,33.99 33.15,33.99 L40.4469375,33.99 C40.9210313,33.99 41.3053125,33.605625 41.3053125,33.131625 L41.3053125,23.0549063 C41.3053125,22.5808125 40.9209375,22.1965312 40.4469375,22.1965312 Z M39.5884688,32.2731562 L34.008375,32.2731562 L34.008375,27.909375 L37.5510937,27.909375 C38.0251875,27.909375 38.4094688,27.525 38.4094688,27.051 C38.4094688,26.577 38.0250937,26.192625 37.5510937,26.192625 L34.008375,26.192625 L34.008375,23.9135625 L39.5884688,23.9135625 L39.5884688,32.2731562 Z" id="Shape" fill="#FFC845"></path>
            <path d="M14.8499063,22.1965312 L7.55296875,22.1965312 C7.078875,22.1965312 6.69459375,22.5809062 6.69459375,23.0549063 L6.69459375,33.131625 C6.69459375,33.6057188 7.07896875,33.99 7.55296875,33.99 L14.8499063,33.99 C15.324,33.99 15.7082813,33.605625 15.7082813,33.131625 L15.7082813,23.0549063 C15.7082813,22.5808125 15.324,22.1965312 14.8499063,22.1965312 Z M13.9915312,32.2731562 L8.4114375,32.2731562 L8.4114375,27.909375 L13.9915312,27.909375 L13.9915312,32.2731562 Z M13.9915312,26.1923437 L8.4114375,26.1923437 L8.4114375,23.9132812 L13.9915312,23.9132812 L13.9915312,26.1923437 Z" id="Shape" fill="#FFC845"></path>
            <circle id="Oval" fill="#FFC845" cx="21.5267812" cy="29.4835313" r="1"></circle>
        </g>
    </g>
</svg>