<?xml version="1.0" encoding="UTF-8"?>
<svg width="48px" height="48px" viewBox="0 0 48 48" version="1.1" xmlns="http://www.w3.org/2000/svg" xmlns:xlink="http://www.w3.org/1999/xlink">
    <title>Insurance Loan</title>
    <g id="Insurance-Loan" stroke="none" stroke-width="1" fill="none" fill-rule="evenodd">
        <rect id="Rectangle" fill="#FEFEFE" x="0" y="0" width="48" height="48"></rect>
        <rect id="Rectangle" fill="#FEFEFE" x="0" y="0" width="48" height="48"></rect>
        <g id="048-secure" transform="translate(6.000000, 0.000000)">
            <path d="M16.875,18.375 C16.875,18.892456 17.295044,19.3125 17.8125,19.3125 C18.329956,19.3125 18.75,18.892456 18.75,18.375 C18.75,17.857544 18.329956,17.4375 17.8125,17.4375 C17.295044,17.4375 16.875,17.857544 16.875,18.375 Z" id="Path" fill="#00A76A"></path>
            <path d="M34.6875,5.57446294 L34.6574708,5.57446294 C28.7867432,5.57446294 23.0844727,3.68591306 18.3717041,0.1849365 C18.039917,-0.061889625 17.5854492,-0.0615234375 17.2532959,0.1849365 C12.5771484,3.66027834 6.79357912,5.57446294 0.96752925,5.57446294 L0.9375,5.57446294 C0.419677688,5.57446294 0,5.99414063 0,6.51196294 L0,23.5986328 C0,34.635498 7.04589844,44.4605713 17.5158692,47.9520263 C17.6121826,47.9838867 17.7125244,48 17.8125,48 C17.9128417,48 18.0128174,47.9838867 18.1091308,47.9520263 C28.5596924,44.4682617 35.625,34.6538086 35.625,23.5986328 L35.625,6.51196294 C35.625,5.99414063 35.2053223,5.57446294 34.6875,5.57446294 Z M33.75,23.5986328 C33.75,33.7598877 27.3588867,42.7510987 17.8125,46.0722656 C8.47009275,42.8214112 1.875,33.9243164 1.875,23.5986328 L1.875,7.43554688 C7.49121094,7.26159666 13.0579834,5.458374 17.8125,2.09545894 C22.505127,5.41333012 28.0510254,7.25903325 33.75,7.43554688 L33.75,23.5986328 Z" id="Shape" fill="#00A76A" fill-rule="nonzero"></path>
            <path d="M17.3474121,6.83020022 C13.9515381,8.77001953 10.2703857,10.0847168 6.40649419,10.7369385 C5.95532231,10.8131104 5.625,11.2038574 5.625,11.6616211 L5.625,23.5997315 C5.625,31.2619629 10.036377,38.5275879 17.4294433,41.8374023 C17.5513916,41.8919677 17.6817627,41.9194336 17.8125,41.9194336 C17.9432373,41.9194336 18.0739746,41.8919677 18.1955567,41.8374023 C24.0893555,39.1977539 28.3535156,33.8481445 29.6129151,27.5200195 C29.6206055,27.4910888 29.6260987,27.4614258 29.6308594,27.4313964 C29.8754883,26.1789551 30,24.8902588 30,23.5997315 C30,22.3787842 30,13.8786621 30,11.6634521 C30,11.2060547 29.670044,10.8153076 29.2188721,10.7391357 C25.3549805,10.0858154 21.6738281,8.770752 18.2775879,6.83056641 C17.9893799,6.66577144 17.6356201,6.66577144 17.3474121,6.83020022 Z M17.8125,39.9492188 C14.9348145,38.5810547 12.5031739,36.5050049 10.7039795,33.8935547 L27.4024658,28.6750489 C25.9672852,33.6038818 22.4813232,37.7259521 17.8125,39.9492188 Z M28.125,14.1364746 L21.1029052,16.3308105 C20.6088867,16.4849854 20.3331299,17.0108643 20.4876709,17.505249 C20.6414795,17.9978027 21.1658935,18.2753906 21.6621094,18.1204834 L28.125,16.1008301 L28.125,23.5997315 C28.125,24.5947266 28.0426026,25.5882568 27.8822021,26.5605469 L9.69177244,32.2452393 C8.25695803,29.6015625 7.5,26.6290283 7.5,23.5997315 L7.5,22.5461426 L14.503418,20.3572998 C14.9974365,20.2027588 15.2731933,19.6768799 15.1186523,19.1828614 C14.9641114,18.6884766 14.4382324,18.4127197 13.9442138,18.567627 L7.5,20.5814209 L7.5,12.4449463 C11.1225586,11.7498779 14.5858154,10.4989013 17.8125,8.71948237 C21.0395508,10.4992676 24.5024414,11.7506104 28.125,12.4467773 L28.125,14.1364746 Z" id="Shape" fill="#FFC845" fill-rule="nonzero"></path>
        </g>
    </g>
</svg>