<?xml version="1.0" encoding="UTF-8"?>
<svg width="12px" height="12px" viewBox="0 0 12 12" version="1.1" xmlns="http://www.w3.org/2000/svg" xmlns:xlink="http://www.w3.org/1999/xlink">
    <title>refresh</title>
    <g id="Symbols" stroke="none" stroke-width="1" fill="none" fill-rule="evenodd">
        <g id="An-Post/Text-Link/Mobile/Green/Default" transform="translate(0.000000, -5.000000)" fill="#008755" fill-rule="nonzero">
            <g id="refresh" transform="translate(0.000000, 5.000000)">
                <path d="M11.4239101,5.28911176 C11.3850177,5.04533333 11.1558534,4.87926125 10.912075,4.9181537 C10.6682965,4.95704616 10.5022245,5.18621044 10.5411169,5.42998886 C10.541536,5.43266027 10.5419812,5.43530548 10.5424526,5.43795069 C10.9976384,8.11749668 9.1944428,10.6586798 6.51489681,11.1138656 C3.83535082,11.5690513 1.29416768,9.76585576 0.838981929,7.08630976 C0.383796179,4.40676377 2.18701793,1.86558063 4.86653773,1.41039488 C6.5143992,1.13047398 8.19169845,1.70608229 9.32041769,2.93888139 L7.34030729,3.59861264 C7.1060621,3.67655469 6.97938009,3.92960444 7.05729594,4.16384963 C7.05732213,4.16390201 7.05734832,4.16398058 7.05737451,4.16403296 C7.13531656,4.39827815 7.38836632,4.52496017 7.6226115,4.44704431 C7.62269007,4.44701812 7.62274245,4.44699193 7.62279483,4.44699193 L10.3046718,3.55304168 C10.4872699,3.49222803 10.6104424,3.32133695 10.6104162,3.12886514 L10.6104162,0.446988217 C10.6104162,0.200119351 10.4102968,0 10.163428,0 C9.91655912,0 9.71643977,0.200119351 9.71643977,0.446988217 L9.71643977,2.07979031 C7.41453033,-0.109606005 3.77359432,-0.0183855234 1.584198,2.28352391 C-0.605198316,4.58543335 -0.514004024,8.22636936 1.7879316,10.4157919 C4.08986723,12.6052144 7.73077705,12.5139939 9.92019955,10.2120583 C11.1686604,8.89940523 11.7258308,7.07533607 11.4239101,5.28911176 Z" id="Path" transform="translate(5.752213, 6.000000) scale(-1, 1) translate(-5.752213, -6.000000) "></path>
            </g>
        </g>
    </g>
</svg>