<?xml version="1.0" encoding="UTF-8"?>
<svg width="30px" height="30px" viewBox="0 0 30 30" version="1.1" xmlns="http://www.w3.org/2000/svg" xmlns:xlink="http://www.w3.org/1999/xlink">
    <title>Group 9</title>
    <g id="Symbols" stroke="none" stroke-width="1" fill="none" fill-rule="evenodd">
        <g id="Icons/AnPost/Badge">
            <g id="Group-9">
                <g id="Group-18">
                    <rect id="Rectangle" fill="#FEFEFE" x="0" y="0" width="30" height="30"></rect>
                    <path d="M21.2268713,10.0859064 C20.9831287,10.0761988 20.7798538,10.2632749 20.7694444,10.5054386 C20.6359357,13.5914035 18.1096784,16.0087719 15.0182164,16.0087719 C11.8439474,16.0087719 9.26149123,13.4263158 9.26149123,10.2519883 C9.26149123,7.07766082 11.8439474,4.49526316 15.0182164,4.49526316 C17.2211988,4.49526316 19.1983918,5.72192982 20.1782749,7.69672515 C20.2859942,7.91385965 20.5493275,8.00251462 20.7665205,7.89473684 C20.983655,7.78701754 21.0723684,7.52362573 20.9645322,7.30649123 C20.4234211,6.21596491 19.5927193,5.29479532 18.5623099,4.64245614 C17.5030117,3.97187135 16.2774561,3.6174269 15.0182164,3.6174269 C11.3599123,3.6174269 8.38371345,6.59368421 8.38371345,10.2519298 C8.38371345,13.9101754 11.3599708,16.8864912 15.0182164,16.8864912 C16.7395614,16.8864912 18.3711988,16.230117 19.6124854,15.0383626 C20.8500292,13.850117 21.5724269,12.2538012 21.6464035,10.5433333 C21.6568713,10.3012281 21.4690351,10.0963743 21.2268713,10.0859064 Z" id="Path" fill="#00A76A"></path>
                    <path d="M24.7502047,8.31233918 C24.4811988,7.95450292 24.2271637,7.61649123 24.1224269,7.29385965 C24.0102632,6.94830409 24.0154094,6.51076023 24.020848,6.04748538 C24.0293275,5.33140351 24.0380409,4.59087719 23.6129532,4.00684211 C23.183538,3.41678363 22.4727778,3.19643275 21.7854094,2.98327485 C21.346345,2.84707602 20.9316082,2.71853801 20.6435965,2.50888889 C20.3614327,2.30356725 20.1144737,1.95222222 19.8530117,1.58017544 C19.4557602,1.01497076 19.0055263,0.374444444 18.3016667,0.145847953 C17.6265789,-0.0733918129 16.9318421,0.161578947 16.2599708,0.38871345 C15.8141813,0.539415205 15.3931287,0.681754386 15.0182164,0.681754386 C14.6432456,0.681754386 14.222193,0.539415205 13.7764035,0.38877193 C13.1044737,0.161637427 12.4096784,-0.0732748538 11.7347076,0.145906433 C11.030848,0.374444444 10.580614,1.01502924 10.1833626,1.58017544 C9.92195906,1.95210526 9.67494152,2.30345029 9.39283626,2.50888889 C9.10482456,2.71847953 8.69008772,2.84707602 8.25096491,2.98327485 C7.56359649,3.19637427 6.85283626,3.41672515 6.42347953,4.00678363 C5.99839181,4.59087719 6.00710526,5.33134503 6.0155848,6.04754386 C6.02102339,6.51081871 6.02622807,6.94836257 5.91406433,7.29385965 C5.80932749,7.61649123 5.5552924,7.95450292 5.28628655,8.3122807 C4.86839181,8.86818713 4.39482456,9.49830409 4.39482456,10.2520468 C4.39482456,11.0057895 4.86845029,11.6359064 5.28628655,12.1918129 C5.5552924,12.5496491 5.80932749,12.8876608 5.91406433,13.2102924 C6.02622807,13.555848 6.02108187,13.9933918 6.01564327,14.4566667 C6.00716374,15.1727485 5.99845029,15.9132749 6.42353801,16.4973099 C6.85295322,17.0873684 7.56371345,17.3077193 8.25108187,17.5208772 C8.6901462,17.6570175 9.10488304,17.7855556 9.39289474,17.9952047 C9.67505848,18.2005263 9.92201754,18.5518713 10.1834795,18.9239181 C10.4344737,19.2809942 10.7068713,19.6680117 11.0507895,19.9623392 L11.0507895,21.905731 C11.0507895,22.1481287 11.2472807,22.3446199 11.4896784,22.3446199 C11.732076,22.3446199 11.9285673,22.1481287 11.9285673,21.905731 L11.9285673,20.408655 C12.054883,20.4340936 12.1817251,20.445614 12.3089181,20.445614 C12.7993275,20.445614 13.2938304,20.2784795 13.776462,20.1152632 C14.2222515,19.9645614 14.6433041,19.8222222 15.0182749,19.8222222 C15.3932456,19.8222222 15.8142982,19.9645614 16.2600292,20.1152047 C16.867807,20.3206433 17.4941813,20.5312281 18.1077485,20.4076608 L18.1077485,29.0467836 L15.3100877,27.8348538 C15.1245322,27.7544444 14.9116667,27.754386 14.7262865,27.8348538 L11.9283918,29.0467836 L11.9283918,25.0949123 C11.9283918,24.8525146 11.7319006,24.6560234 11.4895029,24.6560234 C11.2471053,24.6560234 11.050614,24.8525146 11.050614,25.0949123 L11.050614,29.2653801 C11.050614,29.5135088 11.1744152,29.7430409 11.3819006,29.8791813 C11.5037719,29.9591813 11.643655,29.999883 11.7845322,29.999883 C11.8834211,29.999883 11.9828363,29.9798246 12.0766959,29.9390643 L15.0180994,28.6649123 L17.9593275,29.9391228 C18.1869883,30.0376608 18.4468129,30.0153216 18.6541813,29.8790643 C18.8615497,29.7428655 18.9854094,29.5134503 18.9854094,29.2653216 L18.9854094,19.9623977 C19.3294444,19.6680702 19.6019006,19.2809942 19.8529532,18.9238012 C20.1144152,18.5518713 20.3613743,18.2005263 20.6434795,17.9950877 C20.9314912,17.7854971 21.3462281,17.6569006 21.7852924,17.5207602 C22.4726608,17.3076608 23.1834211,17.0872515 23.6128363,16.497193 C24.037924,15.9131579 24.029152,15.1726901 24.020731,14.4565497 C24.0152924,13.9932749 24.0100877,13.5556725 24.1223099,13.2101754 C24.2270468,12.8875439 24.4810819,12.5495322 24.7500877,12.1916959 C25.1679825,11.6357895 25.6415498,11.0056725 25.6415498,10.2519298 C25.6417836,9.49830409 25.1680994,8.86824561 24.7502047,8.31233918 Z M24.0485088,11.6643275 C23.7481579,12.0640351 23.4375146,12.477193 23.2875146,12.9391228 C23.130731,13.4219298 23.1369883,13.9532164 23.1430702,14.4670175 C23.1501462,15.0662573 23.1568129,15.6323392 22.9031871,15.9808187 C22.6452339,16.3352632 22.1012573,16.5039181 21.5254094,16.6824561 C21.0373392,16.8338012 20.5326608,16.9902924 20.1270468,17.2854971 C19.7270468,17.5765497 19.4259942,18.0049123 19.1348246,18.4191228 C18.7856433,18.9159649 18.4557602,19.3852047 18.0304971,19.5233333 C17.6322515,19.6526901 17.1021345,19.4734503 16.5410234,19.2837427 C16.0476316,19.1169591 15.5374561,18.9445029 15.0180994,18.9445029 C14.4987427,18.9445029 13.9885673,19.1169591 13.4951754,19.2838012 C12.9340058,19.4734503 12.4038889,19.6525731 12.0057602,19.5233918 C11.5804971,19.3852632 11.250614,18.9160234 10.9014327,18.4191813 C10.6103216,18.0049708 10.3092105,17.5766667 9.90926901,17.2855556 C9.50359649,16.9903509 8.99891813,16.8338596 8.51090643,16.6825146 C7.935,16.5039766 7.39108187,16.3353216 7.13312865,15.9808772 C6.87950292,15.6323392 6.88616959,15.0663743 6.89324561,14.467076 C6.89932749,13.9532749 6.90552632,13.4219883 6.74880117,12.9391813 C6.59880117,12.4773099 6.28821637,12.0640936 5.98780702,11.664386 C5.61991228,11.1749123 5.2724269,10.7126901 5.2724269,10.2520468 C5.2724269,9.79146199 5.61991228,9.32912281 5.98780702,8.83976608 C6.28815789,8.44005848 6.59885965,8.02690058 6.74880117,7.56497076 C6.90552632,7.08222222 6.89926901,6.55093567 6.89324561,6.03719298 C6.88616959,5.43789474 6.87950292,4.87181287 7.13312865,4.52333333 C7.39108187,4.16888889 7.935,4.00023392 8.51090643,3.82169591 C8.99897661,3.67035088 9.50365497,3.51385965 9.90932749,3.21865497 C10.3093275,2.92760234 10.6103216,2.49929825 10.9014912,2.08502924 C11.2506725,1.58818713 11.5805556,1.11894737 12.0058187,0.980877193 C12.1000877,0.950292398 12.2016667,0.936902144 12.3094444,0.936902144 C12.6568129,0.936902144 13.0670468,1.07573099 13.4954094,1.22046784 C13.9888012,1.38725146 14.4990351,1.5597076 15.0183333,1.5597076 C15.5376316,1.5597076 16.0478655,1.38725146 16.5412573,1.22040936 C17.1024269,1.03070175 17.6324854,0.851520468 18.030731,0.980818713 C18.4559942,1.11894737 18.7858187,1.58818713 19.1350585,2.08502924 C19.4262281,2.49923977 19.7272807,2.92760234 20.1273392,3.21865497 C20.5330117,3.51385965 21.0376901,3.67035088 21.5257018,3.82169591 C22.1016082,4.00023392 22.6455263,4.16888889 22.9034795,4.52333333 C23.1571053,4.87187135 23.1504386,5.43783626 23.1433626,6.0371345 C23.1372807,6.55093567 23.1310819,7.08222222 23.287807,7.56497076 C23.437807,8.02684211 23.7483918,8.44011696 24.0488012,8.83982456 C24.4166374,9.32929825 24.7641228,9.79152047 24.7641228,10.2521053 C24.7641228,10.7126901 24.4164035,11.1749123 24.0485088,11.6643275 Z" id="Shape" fill="#00A76A" fill-rule="nonzero"></path>
                    <path d="M18.2947661,9.45175439 C18.2148246,9.20578947 18.0062281,9.02988304 17.7502632,8.99269006 L16.2803801,8.77912281 L15.6230117,7.44719298 C15.5085673,7.21526316 15.2767544,7.07122807 15.0181579,7.07122807 C14.7595614,7.07122807 14.5277485,7.21532164 14.4133041,7.44719298 L13.7559357,8.77912281 L12.2860526,8.99269006 C12.0300877,9.02982456 11.8214912,9.20578947 11.7415497,9.45175439 C11.6616667,9.6977193 11.7270468,9.96269006 11.9122515,10.1431579 L12.9758187,11.179883 L12.7247076,12.6438596 C12.6810234,12.8987719 12.7838304,13.1515205 12.9930117,13.3035673 C13.2022515,13.455614 13.4744737,13.4752632 13.7033626,13.3549708 L15.0180409,12.6638012 L16.3327193,13.3549708 C16.4322515,13.4073684 16.5399708,13.4331579 16.6472222,13.4331579 C16.7865205,13.4331579 16.9248246,13.3894737 17.0431287,13.3035673 C17.2523099,13.1515205 17.3552339,12.8987719 17.3114327,12.6438596 L17.0603216,11.1799415 L18.1239474,10.1431579 C18.3093275,9.96263158 18.3747076,9.6977193 18.2947661,9.45175439 Z M16.3712573,10.6259064 C16.2122515,10.7809357 16.1396784,11.0040936 16.1772807,11.2229825 L16.3768129,12.3863158 L15.332076,11.8371345 C15.2338304,11.7854386 15.1260526,11.7595906 15.0181579,11.7595906 C14.9103801,11.7595906 14.8024854,11.7853801 14.7042398,11.837076 L13.6595029,12.3863158 L13.8590351,11.2230994 C13.8965789,11.004269 13.8241228,10.7811111 13.6650585,10.6259649 L12.8198538,9.80210526 L13.9878655,9.63239766 C14.2076901,9.60052632 14.3975146,9.46251462 14.4958187,9.26339181 L15.0181579,8.20497076 L15.5404971,9.26333333 C15.6387427,9.46245614 15.8286257,9.60046784 16.0483918,9.63233918 L17.216462,9.80210526 L16.3712573,10.6259064 Z" id="Shape" fill="#94EB5A" fill-rule="nonzero"></path>
                </g>
                <g id="029-reward" transform="translate(4.375000, 0.000000)"></g>
            </g>
        </g>
    </g>
</svg>