<?xml version="1.0" encoding="UTF-8"?>
<svg width="48px" height="48px" viewBox="0 0 48 48" version="1.1" xmlns="http://www.w3.org/2000/svg" xmlns:xlink="http://www.w3.org/1999/xlink">
    <title>Vehicle Loan</title>
    <g id="Vehicle-Loan" stroke="none" stroke-width="1" fill="none" fill-rule="evenodd">
        <rect id="Rectangle" fill="#FEFEFE" x="0" y="0" width="48" height="48"></rect>
        <g id="car003" transform="translate(1.000000, 12.000000)" fill-rule="nonzero">
            <path d="M9.56153571,15.6800357 C8.19675,15.5831786 7.01196429,16.6111071 6.91510714,17.9758929 C6.81825,19.3406786 7.84617857,20.5254643 9.21096429,20.6223214 C9.27096429,20.6266071 9.33096429,20.6283214 9.39010714,20.6283214 C10.7582143,20.6277857 11.8668214,19.5184286 11.8663931,18.1503214 C11.8658571,16.8493929 10.85925,15.7704643 9.56153571,15.6800357 Z M10.1506071,18.1996071 C10.1505,18.2005714 10.1505,18.2015357 10.1503929,18.2025 L10.1469643,18.2050714 C10.1344286,18.4067143 10.0418571,18.5949643 9.88982143,18.7279286 C9.73810714,18.8622857 9.53807143,18.9288214 9.33610714,18.9122143 C8.91578571,18.8840357 8.59778571,18.5203929 8.62607143,18.0999643 C8.65296429,17.6986071 8.98703571,17.3870357 9.38925,17.3882077 L9.44325,17.3882077 C9.86260714,17.4170357 10.1793214,17.78025 10.1506071,18.1996071 Z" id="Shape" fill="#FFC845"></path>
            <path d="M36.9901071,15.6800357 C35.6253214,15.5831786 34.4405357,16.6111071 34.3436786,17.9758929 C34.2468214,19.3406786 35.27475,20.5254643 36.6395357,20.6223214 C36.6995357,20.6266071 36.7595357,20.6283214 36.8186786,20.6283214 C38.1867857,20.6277857 39.2953929,19.5184286 39.2949645,18.1503214 C39.2944286,16.8493929 38.2878214,15.7704643 36.9901071,15.6800357 Z M37.5791786,18.1996071 C37.5790714,18.2005714 37.5790714,18.2015357 37.5789643,18.2025 L37.5755357,18.2050714 C37.563,18.4067143 37.4704286,18.5949643 37.3183929,18.7279286 C37.1668929,18.8626071 36.96675,18.92925 36.7646786,18.9122143 C36.3443571,18.8840357 36.0263571,18.5203929 36.0546429,18.0999643 C36.0815357,17.6986071 36.4156071,17.3870357 36.8178214,17.3882077 L36.8718214,17.3882077 C37.2911786,17.4170357 37.6078929,17.78025 37.5791786,18.1996071 Z" id="Shape" fill="#FFC845"></path>
            <path d="M24.0001071,10.2868929 L20.5715357,10.2868929 C20.0981786,10.2868929 19.7143929,10.6706786 19.7143929,11.1440357 C19.7143929,11.6173929 20.0981786,12.0011786 20.5715357,12.0011786 L24.0001071,12.0011786 C24.4734643,12.0011786 24.85725,11.6173929 24.85725,11.1440357 C24.85725,10.6706786 24.4734643,10.2868929 24.0001071,10.2868929 Z" id="Path" fill="#FFC845"></path>
            <path d="M46.2857143,11.1962143 L46.2857143,9.42964286 C46.2857143,9.20228571 46.1952857,8.98435714 46.0345714,8.82364286 L44.7317143,7.52078571 C40.1634643,2.92896429 34.0183929,0.248464286 27.5451429,0.0242142857 C27.5068929,0.0138214286 27.4678929,0.00610714286 27.4285714,0.00106486746 C27.3976071,0.00525 27.3669643,0.0114642857 27.3368571,0.0199285714 C27.0797143,0.0122142857 26.832,0.00106486746 26.5782857,0.00106486746 C20.2899643,-0.00117857143 14.2198929,2.30635714 9.52114286,6.48535714 L9.00085714,6.94821429 L4.27628571,8.36592857 C1.73078571,9.11667857 -0.0122142857,11.45925 -0.00031241869,14.1130714 L-0.00031241869,18.0010649 C-0.00031241869,18.4744286 0.383785714,18.8582143 0.857142857,18.8582143 L3.49714286,18.8582143 C3.96760714,22.134 7.00457143,24.4082143 10.2804643,23.93775 C12.9133929,23.5596429 14.9818929,21.4910357 15.36,18.8582143 L30.9257143,18.8582143 C31.3961786,22.134 34.4331429,24.4082143 37.7090357,23.93775 C40.3419643,23.5596429 42.4104643,21.4910357 42.7885714,18.8582143 L45.4285714,18.8582143 C45.9019286,18.8582143 46.2857143,18.4744286 46.2857143,18.0010649 L46.2857143,13.4745 L46.2857143,11.1962143 Z M9.42867857,22.2868929 C7.06178571,22.2868929 5.14296429,20.3680714 5.14296429,18.0011786 C5.14296429,15.6342857 7.06178571,13.7154643 9.42867857,13.7154643 C11.7955714,13.7154643 13.7143929,15.6342857 13.7143929,18.0011786 C13.7115,20.3668929 11.7943929,22.284 9.42867857,22.2868929 Z M26.5715357,17.1440357 L15.3678214,17.1440357 C15.3583929,17.0780357 15.3421071,17.0146071 15.3301071,16.9494643 C15.3155357,16.86375 15.3018214,16.78575 15.2838214,16.7051786 C15.2598214,16.5971786 15.2306786,16.4908929 15.1981071,16.3854643 C15.1766786,16.3091786 15.1569643,16.2320357 15.1321071,16.1574643 C15.0969643,16.04775 15.0549643,15.9406071 15.0138214,15.8334643 C14.98725,15.76575 14.9641071,15.6971786 14.9349643,15.6311786 C14.8835357,15.5111786 14.82525,15.3954643 14.7635357,15.27975 C14.7378214,15.2300357 14.7155357,15.17775 14.6889643,15.1288929 C14.60325,14.96775 14.5046786,14.8100357 14.4018214,14.6574643 C14.3761071,14.61975 14.3469643,14.5846071 14.3161071,14.54775 C14.2363929,14.43375 14.1549643,14.3214643 14.0675357,14.2143214 C14.0229643,14.1603214 13.9749643,14.10975 13.9286786,14.0574643 C13.85325,13.97175 13.7778214,13.8860357 13.6981071,13.8003214 C13.6449643,13.7454643 13.5883929,13.6940357 13.5326786,13.64175 C13.4538214,13.5680357 13.3749643,13.4943214 13.2926786,13.4240357 C13.2326786,13.3726071 13.1701071,13.3246071 13.1075357,13.27575 C13.0218214,13.2106071 12.9403929,13.1471786 12.8503929,13.0863214 C12.7843929,13.0400357 12.7175357,12.9954643 12.6489643,12.95175 C12.56325,12.8951786 12.4715357,12.8411786 12.3806786,12.7888929 C12.3103929,12.7486071 12.2383929,12.7091786 12.1663929,12.6714643 C12.0729643,12.6234643 11.9769643,12.5780357 11.8809643,12.5343214 C11.80725,12.5008929 11.7335357,12.4674643 11.6589643,12.4374643 C11.5578214,12.3963214 11.4549643,12.3603214 11.3521071,12.3243214 C11.2766786,12.2994643 11.2029643,12.2720357 11.1266786,12.24975 C11.0169643,12.2171786 10.9055357,12.1906071 10.7941071,12.1640357 C10.7203929,12.1468929 10.6483929,12.1271786 10.5738214,12.1126071 C10.4486786,12.08775 10.3209643,12.0706071 10.1923929,12.0543214 C10.1289643,12.04575 10.0663929,12.03375 10.0021071,12.02775 C9.82296429,12.0123214 9.62667857,12.0011786 9.42867857,12.0011786 C9.23067857,12.0011786 9.03439286,12.0123214 8.84153571,12.0311786 C8.77725,12.0371786 8.71467857,12.0491786 8.65125,12.05775 C8.52267857,12.0740357 8.39410714,12.0911786 8.26982143,12.1160357 C8.19525,12.1306071 8.12325,12.1503214 8.04953571,12.1674643 C7.93810714,12.1940357 7.82667857,12.2206071 7.71696429,12.2531786 C7.64067857,12.2754643 7.56696429,12.3028929 7.49153571,12.32775 C7.38867857,12.36375 7.28582143,12.39975 7.18467857,12.4408929 C7.11010714,12.4708929 7.03639286,12.5043214 6.96267857,12.53775 C6.86667857,12.5814643 6.77067857,12.6234643 6.67725,12.6748929 C6.60525,12.7126071 6.53325,12.7520357 6.46296429,12.7923214 C6.37210714,12.8446071 6.28210714,12.8986071 6.19467857,12.9551786 C6.12610714,12.9988929 6.05925,13.0408929 5.99325,13.08975 C5.90753571,13.1506071 5.82182143,13.2140357 5.73610714,13.2791786 C5.67353571,13.3280357 5.61096429,13.3760357 5.55096429,13.4274643 C5.46525,13.49775 5.38982143,13.5714643 5.31096429,13.6451786 C5.25525,13.6974643 5.19867857,13.7488929 5.14553571,13.80375 C5.06582143,13.8851786 4.99039286,13.9751786 4.91496429,14.0608929 C4.86867857,14.1131786 4.82067857,14.16375 4.77610714,14.21775 C4.69039286,14.3248929 4.60467857,14.4371786 4.52753571,14.5511786 C4.50096429,14.5880357 4.47182143,14.6231786 4.44610714,14.6608929 C4.34325,14.8134643 4.24810714,14.9711786 4.15896429,15.1323214 C4.13239286,15.1811786 4.11010714,15.2334643 4.08439286,15.2831786 C4.02525,15.3988929 3.96696429,15.5146071 3.91296429,15.6346071 C3.88382143,15.7006071 3.86067857,15.7691786 3.83410714,15.8368929 C3.79296429,15.9440357 3.74839286,16.0511786 3.71582143,16.1608929 C3.69096429,16.2354643 3.67125,16.3126071 3.64982143,16.3888929 C3.62067857,16.4943214 3.59153571,16.6006071 3.56410714,16.7086071 C3.54610714,16.7891786 3.53239286,16.8714643 3.51782143,16.9528929 C3.50582143,17.0180357 3.48953571,17.0814643 3.48010714,17.1474643 L1.71430092,17.1474643 L1.71430092,14.1131786 C1.70560714,12.2178214 2.95039286,10.5445714 4.76839286,10.0083214 L9.55553571,8.57260714 L26.5715357,8.57260714 L26.5715357,17.1440357 Z M26.5715357,6.85832143 L11.7549643,6.85832143 C15.9756429,3.52789286 21.1951071,1.71621429 26.5715357,1.71546429 L26.5715357,6.85832143 Z M28.2858214,1.78232143 C31.99125,2.03496429 35.5858929,3.15321429 38.7806786,5.04717857 L35.7626786,6.85832143 L28.2858214,6.85832143 L28.2858214,1.78232143 Z M36.85725,22.2868929 C34.4903571,22.2868929 32.5715357,20.3680714 32.5715357,18.0011786 C32.5715357,15.6342857 34.4903571,13.7154643 36.85725,13.7154643 C39.2241429,13.7154643 41.1429643,15.6342857 41.1429643,18.0011786 C41.1400714,20.3668929 39.2229643,22.284 36.85725,22.2868929 Z M44.5715357,17.1440357 L42.7963929,17.1440357 C42.7869643,17.0780357 42.7706786,17.0146071 42.7586786,16.9494643 C42.7441071,16.86375 42.7303929,16.78575 42.7123929,16.7051786 C42.6883929,16.5971786 42.65925,16.4908929 42.6266786,16.3854643 C42.60525,16.3091786 42.5855357,16.2320357 42.5606786,16.1574643 C42.5255357,16.04775 42.4835357,15.9406071 42.4423929,15.8334643 C42.4158214,15.76575 42.3926786,15.6971786 42.3635357,15.6311786 C42.3121071,15.5111786 42.2538214,15.3954643 42.1921071,15.27975 C42.1663929,15.2300357 42.1441071,15.17775 42.1175357,15.1288929 C42.0318214,14.96775 41.93325,14.8100357 41.8303929,14.6574643 C41.8046786,14.61975 41.7755357,14.5846071 41.7489643,14.54775 C41.66925,14.43375 41.5878214,14.3214643 41.5003929,14.2143214 C41.4558214,14.1603214 41.4078214,14.10975 41.3615357,14.0574643 C41.2861071,13.97175 41.2106786,13.8860357 41.1309643,13.8003214 C41.0778214,13.7454643 41.02125,13.6940357 40.9655357,13.64175 C40.8866786,13.5680357 40.8078214,13.4943214 40.7255357,13.4240357 C40.6655357,13.3726071 40.6029643,13.3246071 40.5403929,13.27575 C40.4546786,13.2106071 40.3689643,13.1471786 40.28325,13.0863214 C40.21725,13.0400357 40.1503929,12.9954643 40.0818214,12.95175 C39.9961071,12.8951786 39.9043929,12.8411786 39.8135357,12.7888929 C39.74325,12.7486071 39.67125,12.7091786 39.59925,12.6714643 C39.5058214,12.6234643 39.4098214,12.5780357 39.3138214,12.5343214 C39.2401071,12.5008929 39.1663929,12.4674643 39.0918214,12.4374643 C38.9906786,12.3963214 38.8878214,12.3603214 38.7849643,12.3243214 C38.7095357,12.2994643 38.6358214,12.2720357 38.5595357,12.24975 C38.4498214,12.2171786 38.3383929,12.1906071 38.2269643,12.1640357 C38.15325,12.1468929 38.08125,12.1271786 38.0066786,12.1126071 C37.8815357,12.08775 37.7538214,12.0706071 37.62525,12.0543214 C37.5618214,12.04575 37.49925,12.03375 37.4349643,12.02775 C37.2515357,12.0123214 37.05525,12.0011786 36.85725,12.0011786 C36.65925,12.0011786 36.4629643,12.0123214 36.2701071,12.0311786 C36.2058214,12.0371786 36.14325,12.0491786 36.0798214,12.05775 C35.95125,12.0740357 35.8226786,12.0911786 35.6983929,12.1160357 C35.6238214,12.1306071 35.5518214,12.1503214 35.4781071,12.1674643 C35.3666786,12.1940357 35.25525,12.2206071 35.1455357,12.2531786 C35.06925,12.2754643 34.9955357,12.3028929 34.9201071,12.32775 C34.81725,12.36375 34.7143929,12.39975 34.61325,12.4408929 C34.5386786,12.4708929 34.4649643,12.5043214 34.39125,12.53775 C34.29525,12.5814643 34.19925,12.6234643 34.1058214,12.6748929 C34.0338214,12.7126071 33.9618214,12.7520357 33.8915357,12.7923214 C33.8006786,12.8446071 33.7106786,12.8986071 33.62325,12.9551786 C33.5546786,12.9988929 33.4878214,13.0408929 33.4218214,13.08975 C33.3361071,13.1506071 33.2503929,13.2140357 33.1646786,13.2791786 C33.1021071,13.3280357 33.0395357,13.3760357 32.9795357,13.4274643 C32.8938214,13.49775 32.8183929,13.5714643 32.7395357,13.6451786 C32.6838214,13.6974643 32.62725,13.7488929 32.5741071,13.80375 C32.4943929,13.8851786 32.4189643,13.9751786 32.3435357,14.0608929 C32.29725,14.1131786 32.24925,14.16375 32.2046786,14.21775 C32.1189643,14.3248929 32.03325,14.4371786 31.9561071,14.5511786 C31.9295357,14.5880357 31.9003929,14.6231786 31.8746786,14.6608929 C31.7718214,14.8134643 31.6766786,14.9711786 31.5875357,15.1323214 C31.5609643,15.1811786 31.5386786,15.2334643 31.5129643,15.2831786 C31.4538214,15.3988929 31.3955357,15.5146071 31.3415357,15.6346071 C31.3123929,15.7006071 31.28925,15.7691786 31.2626786,15.8368929 C31.2215357,15.9440357 31.1769643,16.0511786 31.1443929,16.1608929 C31.1195357,16.2354643 31.0998214,16.3126071 31.0783929,16.3888929 C31.04925,16.4943214 31.0201071,16.6006071 30.9926786,16.7086071 C30.9746786,16.7891786 30.9609643,16.8714643 30.9463929,16.9528929 C30.9343929,17.0180357 30.9181071,17.0814643 30.9086786,17.1474643 L28.2858214,17.1474643 L28.2858214,8.57260714 L36.0001071,8.57260714 C36.1556786,8.57260714 36.30825,8.53017857 36.4415357,8.45003571 L40.3766786,6.08689286 C41.4975,6.87728571 42.549,7.76164286 43.5198214,8.73032143 L44.5715357,9.78460714 L44.5715357,17.1440357 L44.5715357,17.1440357 Z" id="Shape" fill="#00A76A"></path>
        </g>
        <rect id="Rectangle" fill="#00A76A" x="1" y="36" width="46" height="1.5" rx="0.75"></rect>
    </g>
</svg>