<?xml version="1.0" encoding="UTF-8"?>
<svg width="48px" height="48px" viewBox="0 0 48 48" version="1.1" xmlns="http://www.w3.org/2000/svg" xmlns:xlink="http://www.w3.org/1999/xlink">
    <title>Wedding Loan</title>
    <g id="Wedding-Loan" stroke="none" stroke-width="1" fill="none" fill-rule="evenodd">
        <rect id="Rectangle" fill="#FEFEFE" x="0" y="0" width="48" height="48"></rect>
        <g id="wedding-ring" transform="translate(6.000000, 0.000000)" fill-rule="nonzero">
            <path d="M18.721875,14.359125 L23.031,10.768125 C23.0312812,10.7679375 23.0315625,10.76775 23.0318438,10.7674688 L23.0342813,10.7654063 C23.0481563,10.753875 23.0610938,10.7416875 23.0738438,10.7293125 C23.0765625,10.7266875 23.0795625,10.72425 23.0822813,10.721625 C23.0983125,10.7055938 23.1135,10.6889063 23.12775,10.6716563 C23.1294375,10.6695 23.1310313,10.6671563 23.1327188,10.6650938 C23.1449063,10.65 23.1565313,10.634625 23.1673125,10.6187813 C23.1715313,10.6125938 23.1751875,10.6060313 23.1792188,10.59975 C23.1869063,10.5875625 23.1945938,10.5754688 23.2015313,10.563 C23.2063125,10.554375 23.2104375,10.5454688 23.2148438,10.5366563 C23.2201875,10.5260625 23.2255313,10.515375 23.2303125,10.5045 C23.2347188,10.4944688 23.2386563,10.4841563 23.2425938,10.4738438 C23.2465313,10.4637187 23.250375,10.4535 23.25375,10.4431875 C23.2573125,10.4325 23.2605,10.421625 23.2635938,10.4106563 C23.2665938,10.4000625 23.2693125,10.389375 23.2718438,10.3786875 C23.2742813,10.3680938 23.2765313,10.3574063 23.2785,10.346625 C23.28075,10.3344375 23.2825313,10.32225 23.284125,10.3099688 C23.2853438,10.3004063 23.2866563,10.2909375 23.2875938,10.2812813 C23.289,10.2654375 23.2896563,10.2495938 23.2899375,10.23375 C23.2900313,10.2283125 23.2907813,10.2230625 23.2907813,10.217625 C23.2907813,10.2164063 23.2905938,10.2151875 23.2905938,10.2139688 C23.2905,10.191 23.2894688,10.1682188 23.287125,10.14525 C23.2869375,10.142625 23.2862813,10.1400938 23.286,10.1374688 C23.2838438,10.117875 23.2809375,10.0984688 23.2770938,10.0790625 C23.2753125,10.069875 23.2727813,10.0609688 23.270625,10.051875 C23.267625,10.0394063 23.2647188,10.0270313 23.2610625,10.0146562 C23.257875,10.0039687 23.254125,9.9935625 23.2504688,9.9830625 C23.2469063,9.97275 23.2433438,9.9624375 23.2392188,9.95221875 C23.2347188,9.9410625 23.2298438,9.93009375 23.2247813,9.91921875 C23.2204688,9.91003125 23.21625,9.90084375 23.2115625,9.89184375 C23.2059375,9.88078125 23.1998438,9.87 23.1936563,9.8593125 C23.1908438,9.8544375 23.1885,9.849375 23.1855,9.84459375 L21.4354688,6.9931875 C21.3058125,6.78196875 21.07575,6.65315625 20.827875,6.65315625 L19.7265,6.65315625 C19.7264063,6.65315625 19.7264063,6.65315625 19.7264063,6.65315625 L12.9218438,6.65315625 C12.6739688,6.65315625 12.4439063,6.7820625 12.31425,6.993375 L10.5644063,9.84459375 C10.5614063,9.84946875 10.5590625,9.8544375 10.55625,9.8593125 C10.5500625,9.87 10.5439688,9.88078125 10.5383438,9.89184375 C10.5336563,9.90084375 10.5293438,9.91003125 10.525125,9.91921875 C10.5201563,9.93009375 10.5151875,9.9410625 10.5106875,9.95221875 C10.5065625,9.9624375 10.503,9.97275 10.4994375,9.9830625 C10.4957813,9.9935625 10.4920313,10.0039687 10.4888438,10.0146562 C10.4851875,10.0270312 10.4822813,10.0394062 10.4792813,10.051875 C10.477125,10.0609687 10.4746875,10.069875 10.4728125,10.0790625 C10.4689688,10.0984687 10.4660625,10.117875 10.4639063,10.1374688 C10.463625,10.1400938 10.4630625,10.142625 10.4627813,10.14525 C10.4604375,10.1682188 10.4594063,10.191 10.4593125,10.2139687 C10.4593125,10.2151875 10.459125,10.2164063 10.459125,10.217625 C10.459125,10.2230625 10.4597813,10.2283125 10.4599688,10.23375 C10.46025,10.2495937 10.4609063,10.2654375 10.4623125,10.2812813 C10.4631563,10.2909375 10.4645625,10.3004062 10.4657813,10.3099687 C10.467375,10.32225 10.4691563,10.3344375 10.4714063,10.346625 C10.473375,10.3574063 10.4757188,10.3680937 10.4780625,10.3786875 C10.4805938,10.389375 10.4833125,10.4000625 10.4863125,10.4106563 C10.4894063,10.421625 10.4925938,10.4325 10.4961563,10.4431875 C10.499625,10.4535 10.5034688,10.4637187 10.5073125,10.4738438 C10.5113438,10.4841562 10.5151875,10.4944687 10.5195938,10.5045 C10.524375,10.515375 10.5297188,10.5260625 10.5350625,10.5366563 C10.5394688,10.5454687 10.5435938,10.554375 10.548375,10.563 C10.5553125,10.5754688 10.563,10.5875625 10.5706875,10.59975 C10.5747188,10.6060312 10.578375,10.6125938 10.5825938,10.6187812 C10.593375,10.634625 10.6050938,10.65 10.6171875,10.6650938 C10.618875,10.66725 10.6204688,10.6695938 10.6221563,10.6716562 C10.6364063,10.6888125 10.6515,10.7055 10.667625,10.721625 C10.6703438,10.7243437 10.67325,10.7266875 10.6760625,10.7293125 C10.6888125,10.7416875 10.70175,10.753875 10.715625,10.7654062 L10.7180625,10.7674688 C10.7183438,10.76775 10.718625,10.7679375 10.7189063,10.768125 L15.0280313,14.359125 C6.591,15.282 0.00375,22.4500313 0.00375,31.12875 C0.00375,40.4316563 7.5721875,48 16.875,48 C26.1778125,48 33.74625,40.4316563 33.74625,31.12875 C33.74625,22.4500313 27.159,15.282 18.721875,14.359125 Z M17.587875,13.44825 L17.587875,10.9306875 L20.6089688,10.9306875 L17.587875,13.44825 Z M20.0217187,8.07928125 L20.4289687,8.07928125 L21.3039375,9.5049375 L18.5960625,9.5049375 L20.0217187,8.07928125 Z M18.0053437,8.079375 L16.875,9.209625 L15.7446562,8.079375 L18.0053437,8.079375 Z M13.3208437,8.07946875 L13.7282812,8.07946875 L15.1538438,9.5049375 L12.4459687,9.5049375 L13.3208437,8.07946875 Z M13.1410312,10.9306875 L16.162125,10.9306875 L16.162125,13.44825 L13.1410312,10.9306875 Z M16.875,46.57425 C8.35828125,46.57425 1.4295,39.645375 1.4295,31.12875 C1.4295,22.612125 8.35828125,15.68325 16.875,15.68325 C25.3917188,15.68325 32.3205,22.612125 32.3205,31.12875 C32.3205,39.645375 25.3917188,46.57425 16.875,46.57425 Z" id="Shape" fill="#00A76A"></path>
            <path d="M29.7930938,25.6719375 C29.4414375,24.8412188 29.007,24.0399375 28.5004687,23.2900313 C27.998625,22.547625 27.4225312,21.8500313 26.7885938,21.2150625 C26.153625,20.581125 25.4560312,20.0050313 24.713625,19.5031875 C23.9637187,18.9975938 23.1624375,18.5622188 22.3326563,18.2105625 C20.6037188,17.4795938 18.7673438,17.109 16.8749063,17.109 C14.9824688,17.109 13.1460938,17.4795938 11.4180938,18.2105625 C10.587375,18.5622188 9.78609375,18.9975938 9.0361875,19.5031875 C8.293875,20.0050313 7.5961875,20.581125 6.96121875,21.2150625 C6.32728125,21.8499375 5.75128125,22.547625 5.2494375,23.2900313 C4.74375,24.0399375 4.30846875,24.841125 3.95671875,25.6719375 C3.22584375,27.3999375 2.85515625,29.2363125 2.85515625,31.12875 C2.85515625,33.8670938 3.645,36.520875 5.1391875,38.8010625 C5.85965625,39.9017813 6.73125,40.8950625 7.728375,41.7552188 C8.7320625,42.6192188 9.84890625,43.3358438 11.0484375,43.884375 C11.94375,44.2939688 12.88575,44.6085938 13.847625,44.8205625 C14.836125,45.03825 15.8540625,45.1485 16.8739687,45.1485 L16.876875,45.1485 C17.9147812,45.1485 18.9508125,45.0344063 19.9555312,44.809125 C20.9326875,44.5895625 21.8879063,44.2635 22.7965312,43.8395625 C23.6880937,43.4241563 24.5397187,42.9109688 25.32675,42.3160313 C26.1080625,41.72475 26.8285312,41.0499375 27.4700625,40.3104375 C27.7276875,40.0129688 27.6953437,39.5624063 27.3988125,39.3047813 C27.2695312,39.1917188 27.1032187,39.1299375 26.932125,39.1299375 C26.7257812,39.1299375 26.5290937,39.2192813 26.3940937,39.3751875 L26.3931562,39.376125 C25.8152812,40.0414688 25.167,40.6478438 24.4655625,41.1793125 C23.7584062,41.7144375 22.99425,42.1744688 22.1939063,42.5479688 C21.3774375,42.9290625 20.5191563,43.2218438 19.6418438,43.418625 C18.7397813,43.6200938 17.808375,43.7228438 16.875,43.7228438 C15.0557813,43.7228438 13.300125,43.343625 11.6586563,42.5955 C11.6530313,42.5925938 11.6473125,42.589875 11.6415938,42.5879063 C11.6415938,42.5869688 11.6406563,42.5869688 11.6397188,42.5869688 C10.5628125,42.0936563 9.5600625,41.4501563 8.65903125,40.673625 C7.7626875,39.9017813 6.9795,39.009375 6.33215625,38.0207813 C4.990125,35.9725313 4.281,33.5886562 4.281,31.12875 C4.281,29.427375 4.61371875,27.7783125 5.2704375,26.2270313 C5.904375,24.7281563 6.81215625,23.3813438 7.969875,22.2235313 C9.1275,21.0659063 10.4744063,20.158125 11.9723438,19.5241875 C13.5244688,18.867375 15.1735313,18.53475 16.875,18.53475 C18.576375,18.53475 20.2254375,18.8674688 21.776625,19.5241875 C23.2755938,20.158125 24.6224063,21.0658125 25.780125,22.2235313 C26.93775,23.38125 27.8455313,24.7281563 28.4794688,26.2270313 C29.1362813,27.7782188 29.4689063,29.4272813 29.4689063,31.12875 C29.4689063,32.2018125 29.3339063,33.267375 29.06775,34.2957188 C28.8092813,35.2928438 28.4271562,36.2585625 27.9309375,37.164375 C27.8397188,37.331625 27.8187188,37.5246563 27.8719688,37.7070937 C27.9261562,37.889625 28.0469063,38.0406562 28.2141562,38.1319687 C28.3186875,38.1890625 28.4375625,38.2194375 28.5554063,38.2194375 C28.8167812,38.2194375 29.0563125,38.0777813 29.1818438,37.8488438 C29.734125,36.840375 30.1599375,35.7653437 30.4478438,34.6532812 C30.744375,33.5079375 30.8945626,32.3217188 30.8945626,31.1288438 C30.8945626,29.2362188 30.5240625,27.3998438 29.7930938,25.6719375 Z" id="Path" fill="#00A76A"></path>
            <path d="M16.875,0 C16.48125,0 16.162125,0.319125 16.162125,0.712875 L16.162125,3.56428125 C16.162125,3.95803125 16.48125,4.27715625 16.875,4.27715625 C17.2686562,4.27715625 17.587875,3.95803125 17.587875,3.56428125 L17.587875,0.712875 C17.587875,0.319125 17.26875,0 16.875,0 Z" id="Path" fill="#FFC845"></path>
            <path d="M11.7893437,4.73596875 L10.3635937,2.2665 C10.1667187,1.9254375 9.73078125,1.8088125 9.3898125,2.00559375 C9.04884375,2.20246875 8.93203125,2.63840625 9.12890625,2.979375 L10.5546563,5.44884375 C10.6866562,5.67759375 10.9262812,5.805375 11.1726563,5.805375 C11.2935937,5.805375 11.4162188,5.77453125 11.5284375,5.70975 C11.8694063,5.512875 11.9862188,5.0769375 11.7893437,4.73596875 Z" id="Path" fill="#FFC845"></path>
            <path d="M24.3601875,2.0055 C24.019125,1.80871875 23.5832813,1.9254375 23.3864063,2.26640625 L21.9606562,4.73578125 C21.7637812,5.07665625 21.8805937,5.5126875 22.2215625,5.7095625 C22.3337812,5.77434375 22.4564062,5.8051875 22.5773438,5.8051875 C22.8237187,5.8051875 23.0633438,5.67740625 23.1953437,5.44865625 L24.6210938,2.97928125 C24.8179688,2.6383125 24.7011563,2.202375 24.3601875,2.0055 Z" id="Path" fill="#FFC845"></path>
        </g>
    </g>
</svg>