<svg width="48" height="41" fill="none" xmlns="http://www.w3.org/2000/svg"><path d="M11.59 40.42l31-14.42s7.84-2.9 3.71-11.75M22.84 35.17l-2.3-4.94M36.08 29l-2.3-4.94" stroke="#04A66A" stroke-miterlimit="10" stroke-linecap="round"/><path d="M16.93 31.92L40.27 21a1.13 1.13 0 00.59-.71l3.72-14a1.08 1.08 0 00-1.5-1.26l-7.26 3.43a1.1 1.1 0 00-.56.6l-1.92 5.29L21.13 20s-7.79-12-19-8a1.1 1.1 0 00-.49 1.7l14 17.86a1.08 1.08 0 001.29.36v0z" stroke="#04A66A" stroke-linecap="round" stroke-linejoin="round"/><path d="M27.44 17.1L22.38 6.25" stroke="#93EB5A" stroke-miterlimit="10"/><path d="M29.65 6.45l-11.8 5.5 3.67 7.87 11.8-5.5-3.67-7.87z" stroke="#04A66A" stroke-linecap="round" stroke-linejoin="round"/><path d="M22.04 5.44c.08-.96-1.12-1.85-2.7-1.98-1.57-.14-2.92.52-3 1.48-.08.96 1.12 1.84 2.7 1.98 1.57.14 2.92-.52 3-1.48z" stroke="#93EB5A" stroke-miterlimit="10"/><path d="M25.2 4.05c.91-1.3 1-2.8.22-3.34-.79-.55-2.16.05-3.06 1.34-.91 1.3-1 2.8-.22 3.34.79.55 2.16-.05 3.07-1.34z" stroke="#93EB5A" stroke-miterlimit="10"/><path d="M29.25 3.04L15.5 9.46l1.38 2.94L30.63 6l-1.38-2.95z" stroke="#04A66A" stroke-linecap="round" stroke-linejoin="round"/></svg>