<svg width="56" height="56" fill="none" xmlns="http://www.w3.org/2000/svg"><path fill-rule="evenodd" clip-rule="evenodd" d="M17.3 50.93c-.73.35-1.42.73-1.85-.15-.43-.88.36-1.05 1.08-1.4l31.8-15.52c.42-.25 1.77-.98 2.13-1.3 2.74-2.45 2.47-6.3.83-9.65-.37-.76-.67-1.39.26-1.84.92-.45 1.17.2 1.54.96 2.12 4.34 1.87 8.88-1.43 11.74-.65.56-1.73 1.26-2.57 1.65l-31.8 15.5v.01z" fill="#00A76A"/><path fill-rule="evenodd" clip-rule="evenodd" d="M45.11 31.03L20.07 43.25c-.6.29-1.34.12-1.79-.42l-16-19.45c-.55-.65-.48-1.61.14-2.14.09-.08.19-.14.3-.2 10.3-5.02 20.69 3.38 23.59 5.97l11.52-5.62 1.15-3.9c.13-.38.39-.7.74-.86l7.9-3.86a1.52 1.52 0 012.02.72c.16.33.1 1.1.02 1.5-.06.27-1.32 5.3-3.79 15.09a1.44 1.44 0 01-.76.95zm-.8-1.64L47.6 14.9l-6.84 3.34-1.04 3.48c-.12.38-.36.89-.71 1.06l-12.12 5.9c-.56.28-1.13.53-1.59.07-.06-.06-4.24-4.7-10.24-6.76-3.53-1.2-7.25-1.73-11.3.48L19.27 41.6l25.04-12.22z" fill="#00A76A"/><path fill-rule="evenodd" clip-rule="evenodd" d="M28.05 45.68c-.5.24-1.13-.05-1.42-.64l-2.11-4.33c-.3-.6-.13-1.27.37-1.52.5-.24 1.13.05 1.42.65l2.11 4.32c.3.6.13 1.28-.37 1.52zm14.06-6.85c-.5.24-1.14-.05-1.43-.65l-2.1-4.32c-.3-.6-.13-1.28.37-1.52.5-.25 1.13.04 1.42.64l2.11 4.33c.3.6.13 1.27-.37 1.52" fill="#00A76A"/><path fill-rule="evenodd" clip-rule="evenodd" d="M26.65 14.66L28 14l5.26 10.79-1.35.66-5.26-10.79z" fill="#94EB5A"/><path d="M22.9 19.27L33.7 14a.62.62 0 01.83.29l3.76 7.72a.62.62 0 01-.28.82L27.2 28.1a.62.62 0 01-.82-.28l-3.77-7.72a.62.62 0 01.28-.83zm1.46.96l3 6.14 9.19-4.49-3-6.14-9.2 4.49z" fill="#00A76A"/><path d="M20.16 16.71l13.33-6.5c.68-.33.94.02 1.05.24l1.64 3.37c.08.16.02.63-.5.88l-13.4 6.54c-.52.25-.8-.06-.87-.22l-1.64-3.36c-.08-.16-.18-.67.39-.95zm1.31 1.03l.88 1.8 12.08-5.9-.88-1.79-12.08 5.9v-.01z" fill="#00A76A"/><path d="M26.34 13.76l-.28-.55c-.8-1.54-.7-3.05.3-4.42 1.43-1.95 3.99-2.3 4.79-.66.77 1.58.05 3.26-2.22 4.36l-2.59 1.27zm2.04-2.4c1.68-.82 2.08-1.76 1.63-2.68-.3-.62-1.7-.43-2.63.86-.6.8-.74 1.63-.44 2.53l1.44-.7z" fill="#94EB5A"/><path d="M26.56 12.97l.26.55-2.59 1.27c-2.27 1.1-4.03.63-4.8-.95-.8-1.64 1.05-3.44 3.47-3.36 1.7.06 2.94.9 3.66 2.49zm-3.7-1.23c-1.6-.05-2.6.93-2.3 1.55.45.92 1.44 1.18 3.12.36l1.44-.7a2.63 2.63 0 00-2.26-1.2z" fill="#94EB5A"/><path d="M26.34 13.76l-.28-.55c-.8-1.54-.7-3.05.3-4.42 1.43-1.95 3.99-2.3 4.79-.66.77 1.58.05 3.26-2.22 4.36l-2.59 1.27zm2.04-2.4c1.68-.82 2.08-1.76 1.63-2.68-.3-.62-1.7-.43-2.63.86-.6.8-.74 1.63-.44 2.53l1.44-.7z" fill="#94EB5A"/><path d="M26.56 12.97l.26.55-2.59 1.27c-2.27 1.1-4.03.63-4.8-.95-.8-1.64 1.05-3.44 3.47-3.36 1.7.06 2.94.9 3.66 2.49zm-3.7-1.23c-1.6-.05-2.6.93-2.3 1.55.45.92 1.44 1.18 3.12.36l1.44-.7a2.63 2.63 0 00-2.26-1.2z" fill="#94EB5A"/></svg>