<svg width="56" height="56" viewBox="0 0 56 56" fill="none" xmlns="http://www.w3.org/2000/svg">
<path fill-rule="evenodd" clip-rule="evenodd" d="M17.3 50.93C16.57 51.28 15.88 51.66 15.45 50.78C15.02 49.9 15.81 49.73 16.53 49.38L48.33 33.86C48.75 33.61 50.1 32.88 50.46 32.56C53.2 30.11 52.93 26.26 51.29 22.91C50.92 22.15 50.62 21.52 51.55 21.07C52.47 20.62 52.72 21.27 53.09 22.03C55.21 26.37 54.96 30.91 51.66 33.77C51.01 34.33 49.93 35.03 49.09 35.42L17.29 50.92V50.93H17.3Z" fill="#00A76A"/>
<path d="M20.07 43.25L45.11 31.03C45.2983 30.9367 45.464 30.8033 45.5952 30.6392C45.7265 30.4751 45.8203 30.2842 45.87 30.08C48.34 20.29 49.6 15.26 49.66 14.99C49.74 14.59 49.8 13.82 49.64 13.49C49.4669 13.1273 49.1572 12.848 48.7786 12.713C48.4001 12.5781 47.9835 12.5986 47.62 12.77L39.72 16.63C39.37 16.79 39.11 17.11 38.98 17.49L37.83 21.39L26.31 27.01C23.41 24.42 13.02 16.02 2.71999 21.04C2.60999 21.1 2.50999 21.16 2.41999 21.24C1.79999 21.77 1.72999 22.73 2.27999 23.38L18.28 42.83C18.73 43.37 19.47 43.54 20.07 43.25Z" fill="white"/>
<path fill-rule="evenodd" clip-rule="evenodd" d="M45.11 31.03L20.07 43.25C19.47 43.54 18.73 43.37 18.28 42.83L2.27999 23.38C1.72999 22.73 1.79999 21.77 2.41999 21.24C2.50999 21.16 2.60999 21.1 2.71999 21.04C13.02 16.02 23.41 24.42 26.31 27.01L37.83 21.39L38.98 17.49C39.11 17.11 39.37 16.79 39.72 16.63L47.62 12.77C47.9835 12.5986 48.4001 12.5781 48.7786 12.713C49.1572 12.848 49.4669 13.1273 49.64 13.49C49.8 13.82 49.74 14.59 49.66 14.99C49.6 15.26 48.34 20.29 45.87 30.08C45.8203 30.2842 45.7265 30.4751 45.5952 30.6392C45.464 30.8033 45.2983 30.9367 45.11 31.03ZM44.31 29.39L47.6 14.9L40.76 18.24L39.72 21.72C39.6 22.1 39.36 22.61 39.01 22.78L26.89 28.68C26.33 28.96 25.76 29.21 25.3 28.75C25.24 28.69 21.06 24.05 15.06 21.99C11.53 20.79 7.80999 20.26 3.75999 22.47L19.27 41.6L44.31 29.38V29.39Z" fill="#00A76A"/>
<path fill-rule="evenodd" clip-rule="evenodd" d="M28.05 45.68C27.55 45.92 26.92 45.63 26.63 45.04L24.52 40.71C24.22 40.11 24.39 39.44 24.89 39.19C25.39 38.95 26.02 39.24 26.31 39.84L28.42 44.16C28.72 44.76 28.55 45.44 28.05 45.68ZM42.11 38.83C41.61 39.07 40.97 38.78 40.68 38.18L38.58 33.86C38.28 33.26 38.45 32.58 38.95 32.34C39.45 32.09 40.08 32.38 40.37 32.98L42.48 37.31C42.78 37.91 42.61 38.58 42.11 38.83Z" fill="#00A76A"/>
<path fill-rule="evenodd" clip-rule="evenodd" d="M26.65 14.66L28 14L33.26 24.79L31.91 25.45L26.65 14.66Z" fill="#94EB5A"/>
<path d="M22.9 19.27L33.7 14C33.7735 13.9643 33.8533 13.9435 33.9349 13.9388C34.0165 13.9341 34.0982 13.9455 34.1753 13.9724C34.2524 13.9994 34.3235 14.0413 34.3843 14.0958C34.4452 14.1503 34.4947 14.2163 34.53 14.29L38.29 22.01C38.3596 22.1562 38.3693 22.3238 38.317 22.477C38.2647 22.6303 38.1545 22.757 38.01 22.83L27.2 28.1C27.0538 28.1697 26.8862 28.1793 26.733 28.127C26.5797 28.0747 26.453 27.9645 26.38 27.82L22.61 20.1C22.5372 19.9528 22.5258 19.7827 22.5783 19.6271C22.6308 19.4715 22.7429 19.3431 22.89 19.27H22.9ZM24.36 20.23L27.36 26.37L36.55 21.88L33.55 15.74L24.35 20.23H24.36Z" fill="#00A76A"/>
<path d="M20.16 16.71L33.49 10.21C34.17 9.87999 34.43 10.23 34.54 10.45L36.18 13.82C36.26 13.98 36.2 14.45 35.68 14.7L22.28 21.24C21.76 21.49 21.48 21.18 21.41 21.02L19.77 17.66C19.69 17.5 19.59 16.99 20.16 16.71ZM21.47 17.74L22.35 19.54L34.43 13.64L33.55 11.85L21.47 17.75V17.74Z" fill="#00A76A"/>
<path d="M26.34 13.76L26.06 13.21C25.26 11.67 25.36 10.16 26.36 8.79C27.79 6.84 30.35 6.49 31.15 8.13C31.92 9.71 31.2 11.39 28.93 12.49L26.34 13.76ZM28.38 11.36C30.06 10.54 30.46 9.6 30.01 8.68C29.71 8.06 28.31 8.25 27.38 9.54C26.78 10.34 26.64 11.17 26.94 12.07L28.38 11.37V11.36Z" fill="#94EB5A"/>
<path d="M26.56 12.97L26.82 13.52L24.23 14.79C21.96 15.89 20.2 15.42 19.43 13.84C18.63 12.2 20.48 10.4 22.9 10.48C24.6 10.54 25.84 11.38 26.56 12.97ZM22.86 11.74C21.26 11.69 20.26 12.67 20.56 13.29C21.01 14.21 22 14.47 23.68 13.65L25.12 12.95C24.8766 12.5741 24.5413 12.2666 24.1458 12.0566C23.7503 11.8466 23.3077 11.7411 22.86 11.75V11.74Z" fill="#94EB5A"/>
<path d="M26.34 13.76L26.06 13.21C25.26 11.67 25.36 10.16 26.36 8.79C27.79 6.84 30.35 6.49 31.15 8.13C31.92 9.71 31.2 11.39 28.93 12.49L26.34 13.76ZM28.38 11.36C30.06 10.54 30.46 9.6 30.01 8.68C29.71 8.06 28.31 8.25 27.38 9.54C26.78 10.34 26.64 11.17 26.94 12.07L28.38 11.37V11.36Z" fill="#94EB5A"/>
<path d="M26.56 12.97L26.82 13.52L24.23 14.79C21.96 15.89 20.2 15.42 19.43 13.84C18.63 12.2 20.48 10.4 22.9 10.48C24.6 10.54 25.84 11.38 26.56 12.97ZM22.86 11.74C21.26 11.69 20.26 12.67 20.56 13.29C21.01 14.21 22 14.47 23.68 13.65L25.12 12.95C24.8766 12.5741 24.5413 12.2666 24.1458 12.0566C23.7503 11.8466 23.3077 11.7411 22.86 11.75V11.74Z" fill="#94EB5A"/>
</svg>
