<svg width="15" height="9" viewBox="0 0 15 9" fill="none" xmlns="http://www.w3.org/2000/svg">
<path fill-rule="evenodd" clip-rule="evenodd" d="M14.221 1.235C14.2716 1.33581 14.3015 1.44572 14.309 1.55826C14.3165 1.6708 14.3015 1.78371 14.2648 1.89036C14.2281 1.99702 14.1705 2.09527 14.0953 2.17935C14.0201 2.26343 13.9289 2.33164 13.827 2.38L2.04599 8.14699C1.83848 8.24561 1.60059 8.25896 1.38335 8.18418C1.16611 8.1094 0.986833 7.95245 0.883994 7.747C0.833421 7.64618 0.803495 7.53627 0.79597 7.42373C0.788445 7.31119 0.803473 7.19828 0.840174 7.09163C0.876874 6.98497 0.934506 6.88672 1.00969 6.80264C1.08487 6.71856 1.17609 6.65035 1.27799 6.602L13.06 0.834994C13.2674 0.736686 13.505 0.723505 13.7221 0.798269C13.9391 0.873034 14.1182 1.0298 14.221 1.235Z" fill="#00A76A"/>
</svg>
