<?xml version="1.0" encoding="UTF-8"?>
<svg width="47px" height="37px" viewBox="0 0 47 37" version="1.1" xmlns="http://www.w3.org/2000/svg" xmlns:xlink="http://www.w3.org/1999/xlink">
    <!-- Generator: Sketch 64 (93537) - https://sketch.com -->
    <title>mc_vrt_pos</title>
    <desc>Created with Sketch.</desc>
    <g id="Symbols" stroke="none" stroke-width="1" fill="none" fill-rule="evenodd">
        <g id="Desktop/Trust-Symbols/Shop" transform="translate(-193.000000, -47.000000)">
            <g id="Group-2" transform="translate(74.000000, 0.000000)">
                <g id="Group">
                    <g transform="translate(0.000000, 42.000000)">
                        <g id="mc_vrt_pos" transform="translate(114.000000, 0.000000)">
                            <rect id="Rectangle" x="0" y="0" width="56.922449" height="46.7708264"></rect>
                            <path d="M14.094898,40.8861157 L14.094898,38.5555372 C14.1223278,38.1590262 13.9781107,37.7698639 13.6990392,37.4873329 C13.4199677,37.2048018 13.0330291,37.0562239 12.6369388,37.0795041 C12.1149561,37.0452244 11.6157196,37.2982537 11.3340816,37.7398347 C11.0773086,37.3114197 10.6071487,37.0580456 10.1087755,37.0795041 C9.67484551,37.0575295 9.26174836,37.2673933 9.02306122,37.6310744 L9.02306122,37.1727273 L8.21653061,37.1727273 L8.21653061,40.8861157 L9.03081633,40.8861157 L9.03081633,38.8429752 C8.99574712,38.5858697 9.07706684,38.3265024 9.25258403,38.1356522 C9.42810122,37.9448021 9.67949541,37.8423901 9.93816327,37.8563636 C10.4732653,37.8563636 10.7446939,38.2059504 10.7446939,38.8352066 L10.7446939,40.9016529 L11.5589796,40.9016529 L11.5589796,38.8429752 C11.5253494,38.5861621 11.6071664,38.3276351 11.7823582,38.1371388 C11.9575499,37.9466425 12.2080673,37.8438029 12.4663265,37.8563636 C13.0169388,37.8563636 13.2806122,38.2059504 13.2806122,38.8352066 L13.2806122,40.9016529 L14.094898,40.8861157 Z M26.142449,37.1727273 L24.8163265,37.1727273 L24.8163265,36.046281 L24.0020408,36.046281 L24.0020408,37.1727273 L23.2653061,37.1727273 L23.2653061,37.9107438 L24.017551,37.9107438 L24.017551,39.6198347 C24.017551,40.4821488 24.3510204,40.9948867 25.304898,40.9948867 C25.6612676,40.9960752 26.0107316,40.8964393 26.3130612,40.707438 L26.0804082,40.0160331 C25.8641196,40.1452674 25.6186426,40.2174349 25.3669388,40.2257851 C24.9791837,40.2257851 24.8318367,39.9771901 24.8318367,39.6042975 L24.8318367,37.9107438 L26.1502041,37.9107438 L26.142449,37.1727273 Z M33.0212245,37.0795041 C32.6206414,37.0677026 32.2457077,37.2763616 32.0440816,37.6233058 L32.0440816,37.1727273 L31.2453061,37.1727273 L31.2453061,40.8861157 L32.0518367,40.8861157 L32.0518367,38.8041322 C32.0518367,38.1904132 32.3155102,37.848595 32.8273469,37.848595 C32.999853,37.8462313 33.1711364,37.8779079 33.3314286,37.9418182 L33.5795918,37.1649587 C33.3953973,37.0989505 33.2013387,37.0647998 33.0057143,37.0639669 L33.0212245,37.0795041 Z M22.6216327,37.4679339 C22.1650995,37.1960241 21.6402051,37.0612016 21.1093878,37.0795041 C20.1710204,37.0795041 19.5583673,37.5300826 19.5583673,38.2680992 C19.5583673,38.8740496 20.0081633,39.2469421 20.8379592,39.3634711 L21.2257143,39.4178512 C21.6677551,39.48 21.8771429,39.5965289 21.8771429,39.806281 C21.8771429,40.093719 21.582449,40.2568595 21.0318367,40.2568595 C20.5889438,40.2697018 20.1546196,40.1328843 19.7987755,39.8684298 L19.4110204,40.497686 C19.8808299,40.8262939 20.4435431,40.9951293 21.0163265,40.9793388 C22.0865306,40.9793388 22.7069388,40.4743802 22.7069388,39.767438 C22.7069388,39.0604959 22.2183673,38.7730579 21.4118367,38.6565289 L21.0240816,38.6021488 C20.675102,38.5555372 20.3959184,38.4856198 20.3959184,38.2370248 C20.3959184,37.9884298 20.6595918,37.8019835 21.1016327,37.8019835 C21.5102007,37.8067379 21.9107209,37.9164038 22.264898,38.1204959 L22.6216327,37.4679339 Z M44.2234694,37.0795041 C43.8228863,37.0677026 43.4479526,37.2763616 43.2463265,37.6233058 L43.2463265,37.1727273 L42.447551,37.1727273 L42.447551,40.8861157 L43.2540816,40.8861157 L43.2540816,38.8041322 C43.2540816,38.1904132 43.5177551,37.848595 44.0295918,37.848595 C44.2020979,37.8462313 44.3733813,37.8779079 44.5336735,37.9418182 L44.7818367,37.1649587 C44.5976422,37.0989505 44.4035836,37.0647998 44.2079592,37.0639669 L44.2234694,37.0795041 Z M33.8316327,39.0216529 C33.8122363,39.5493094 34.0157019,40.0607268 34.3920876,40.4303744 C34.7684733,40.800022 35.2829309,40.9936756 35.8091837,40.9638017 C36.2934427,40.9884824 36.769356,40.8304926 37.1430612,40.5209917 L36.7553061,39.8684298 C36.4764989,40.0814101 36.1365198,40.1985664 35.7859184,40.2024793 C35.1677207,40.1523732 34.6915139,39.6351813 34.6915139,39.0138843 C34.6915139,38.3925873 35.1677207,37.8753954 35.7859184,37.8252893 C36.1365198,37.8292022 36.4764989,37.9463585 36.7553061,38.1593388 L37.1430612,37.5067769 C36.769356,37.197276 36.2934427,37.0392862 35.8091837,37.0639669 C35.2829309,37.034093 34.7684733,37.2277466 34.3920876,37.5973942 C34.0157019,37.9670418 33.8122363,38.4784592 33.8316327,39.0061157 L33.8316327,39.0216529 Z M41.385102,39.0216529 L41.385102,37.1727273 L40.5785714,37.1727273 L40.5785714,37.6233058 C40.3007074,37.2651541 39.8678071,37.0627825 39.4153061,37.0795041 C38.34455,37.0795041 37.4765306,37.9490338 37.4765306,39.0216529 C37.4765306,40.094272 38.34455,40.9638017 39.4153061,40.9638017 C39.8678071,40.9805233 40.3007074,40.7781516 40.5785714,40.42 L40.5785714,40.8705785 L41.385102,40.8705785 L41.385102,39.0216529 Z M38.3838776,39.0216529 C38.419743,38.4120779 38.9354367,37.9430256 39.54458,37.965929 C40.1537233,37.9888324 40.6328658,38.4952899 40.6230143,39.105843 C40.6131629,39.7163962 40.1179314,40.2070772 39.5083673,40.2102479 C39.1979845,40.2141821 38.9000666,40.0880782 38.6865445,39.8623836 C38.4730225,39.6366891 38.3633031,39.3319168 38.3838776,39.0216529 L38.3838776,39.0216529 Z M28.6512245,37.0795041 C27.5804683,37.0945208 26.7246013,37.9762238 26.7395918,39.048843 C26.7545824,40.1214621 27.6347541,40.9788183 28.7055102,40.9638017 C29.2633887,40.9924868 29.8120103,40.8125248 30.244898,40.458843 L29.8571429,39.8606612 C29.5509567,40.1066454 29.1716313,40.2433308 28.7791837,40.2490909 C28.2248359,40.2968484 27.7332454,39.8939382 27.6702041,39.3401653 L30.4232653,39.3401653 C30.4232653,39.2391736 30.4232653,39.1381818 30.4232653,39.0294215 C30.4232653,37.8641322 29.7020408,37.0872727 28.6628571,37.0872727 L28.6512245,37.0795041 Z M28.6512245,37.8019835 C28.8949685,37.7967779 29.1307884,37.8888091 29.3067784,38.0578203 C29.4827684,38.2268316 29.5845038,38.4589701 29.5895918,38.7031405 L27.6508163,38.7031405 C27.6800253,38.1845182 28.1174711,37.7842661 28.6357143,37.8019835 L28.6512245,37.8019835 Z M48.8571429,39.0294215 L48.8571429,35.681157 L48.0816327,35.681157 L48.0816327,37.6233058 C47.8037686,37.2651541 47.3708684,37.0627825 46.9183673,37.0795041 C45.8476112,37.0795041 44.9795918,37.9490338 44.9795918,39.0216529 C44.9795918,40.094272 45.8476112,40.9638017 46.9183673,40.9638017 C47.3708684,40.9805233 47.8037686,40.7781516 48.0816327,40.42 L48.0816327,40.8705785 L48.8571429,40.8705785 L48.8571429,39.0294215 Z M50.2026531,40.3461983 C50.2530662,40.3455796 50.303116,40.3548154 50.35,40.3733884 C50.3945309,40.3915918 50.4352924,40.4179353 50.4702041,40.4510744 C50.5042758,40.4845653 50.5318814,40.5240706 50.5516327,40.5676033 C50.5913237,40.6592911 50.5913237,40.7633535 50.5516327,40.8550413 C50.5318814,40.8985741 50.5042758,40.9380793 50.4702041,40.9715702 C50.4352924,41.0047093 50.3945309,41.0310528 50.35,41.0492562 C50.3035789,41.0697751 50.2533925,41.080359 50.2026531,41.0803306 C50.0526111,41.0791977 49.9166886,40.9914508 49.8536735,40.8550413 C49.814442,40.7632586 49.814442,40.6593861 49.8536735,40.5676033 C49.8734247,40.5240706 49.9010303,40.4845653 49.935102,40.4510744 C49.9700137,40.4179353 50.0107753,40.3915918 50.0553061,40.3733884 C50.1058112,40.3532632 50.1599758,40.3439995 50.2142857,40.3461983 L50.2026531,40.3461983 Z M50.2026531,41.0026446 C50.2413547,41.0028801 50.279671,40.9949388 50.315102,40.9793388 C50.3484631,40.9644183 50.3787188,40.9433342 50.4042857,40.9171901 C50.5048294,40.8073005 50.5048294,40.6386499 50.4042857,40.5287603 C50.3787798,40.5025441 50.3485094,40.4814498 50.315102,40.4666116 C50.2796361,40.4511215 50.2413432,40.4431851 50.2026531,40.4433044 C50.1639963,40.4435104 50.1257682,40.4514334 50.0902041,40.4666116 C50.0553661,40.4809213 50.0237282,40.50205 49.9971429,40.5287603 C49.8965991,40.6386499 49.8965991,40.8073005 49.9971429,40.9171901 C50.0237935,40.9438206 50.0554145,40.964938 50.0902041,40.9793388 C50.1293246,40.9962386 50.1717109,41.0041999 50.2142857,41.0026446 L50.2026531,41.0026446 Z M50.2259184,40.5404132 C50.2621158,40.5386548 50.2977852,40.5496491 50.3267347,40.5714876 C50.3508152,40.5914513 50.3638085,40.6218218 50.3616327,40.6530579 C50.3627583,40.6791429 50.3529122,40.7045054 50.3344898,40.7229752 C50.3120148,40.7434245 50.2833436,40.7557335 50.2530612,40.7579339 L50.3655102,40.8861157 L50.2763265,40.8861157 L50.1716327,40.7579339 L50.1367347,40.7579339 L50.1367347,40.8861157 L50.0630612,40.8861157 L50.0630612,40.5442975 L50.2259184,40.5404132 Z M50.1406122,40.6064463 L50.1406122,40.6996694 L50.2259184,40.6996694 C50.2410984,40.7042031 50.2572689,40.7042031 50.272449,40.6996694 C50.2779795,40.688675 50.2779795,40.6757052 50.272449,40.6647107 C50.2779795,40.6537163 50.2779795,40.6407465 50.272449,40.6297521 C50.2572689,40.6252184 50.2410984,40.6252184 50.2259184,40.6297521 L50.1406122,40.6064463 Z M45.8753061,39.0294215 C45.9111715,38.4198465 46.4268652,37.9507942 47.0360086,37.9736976 C47.6451519,37.996601 48.1242943,38.5030585 48.1144429,39.1136116 C48.1045915,39.7241648 47.60936,40.2148458 46.9997959,40.2180165 C46.6894131,40.2219507 46.3914952,40.0958468 46.1779731,39.8701522 C45.9644511,39.6444577 45.8547316,39.3396854 45.8753061,39.0294215 L45.8753061,39.0294215 Z M18.6432653,39.0294215 L18.6432653,37.1727273 L17.8367347,37.1727273 L17.8367347,37.6233058 C17.5588707,37.2651541 17.1259704,37.0627825 16.6734694,37.0795041 C15.6027132,37.0795041 14.7346939,37.9490338 14.7346939,39.0216529 C14.7346939,40.094272 15.6027132,40.9638017 16.6734694,40.9638017 C17.1259704,40.9805233 17.5588707,40.7781516 17.8367347,40.42 L17.8367347,40.8705785 L18.6432653,40.8705785 L18.6432653,39.0294215 Z M15.6420408,39.0294215 C15.6779062,38.4198465 16.1935999,37.9507942 16.8027433,37.9736976 C17.4118866,37.996601 17.891029,38.5030585 17.8811776,39.1136116 C17.8713262,39.7241648 17.3760947,40.2148458 16.7665306,40.2180165 C16.4548102,40.2241469 16.1548182,40.0990044 15.9395764,39.8730503 C15.7243346,39.6470963 15.6135851,39.3410552 15.6342857,39.0294215 L15.6420408,39.0294215 Z" id="Shape" fill="#231F20" fill-rule="nonzero"></path>
                            <g id="_Group_" transform="translate(5.816327, 5.826446)" fill-rule="nonzero">
                                <rect id="Rectangle" fill="#FF5F00" x="16.5377551" y="3.04917355" width="12.2142857" height="21.9890083"></rect>
                                <path d="M17.3132653,14.0456198 C17.3086986,9.75405071 19.2748578,5.6988643 22.644898,3.04917355 C16.9215514,-1.45659146 8.7025961,-0.800287819 3.76409306,4.55685191 C-1.17440998,9.91399164 -1.17440998,18.1733637 3.76409306,23.5305035 C8.7025961,28.8876432 16.9215514,29.5439468 22.644898,25.0381818 C19.2759299,22.3893322 17.3098908,18.3358259 17.3132653,14.0456198 L17.3132653,14.0456198 Z" id="_Path_" fill="#EB001B"></path>
                                <path d="M45.2316327,14.0456198 C45.2316327,19.3994949 42.1797755,24.283327 37.3725174,26.622934 C32.5652593,28.962541 26.8464532,28.347174 22.644898,25.0381818 C26.012396,22.3870834 27.9785831,18.334116 27.9785831,14.0436777 C27.9785831,9.75323937 26.012396,5.70027194 22.644898,3.04917355 C26.8464532,-0.259818651 32.5652593,-0.875185611 37.3725174,1.46442138 C42.1797755,3.80402838 45.2316327,8.68786051 45.2316327,14.0417355 L45.2316327,14.0456198 Z" id="Path" fill="#F79E1B"></path>
                                <path d="M43.8977551,23.3304683 L43.8977551,22.3638017 L44.08,22.3638017 L44.08,22.1638017 L43.6185714,22.1638017 L43.6185714,22.3638017 L43.8163265,22.3638017 L43.8163265,23.3304683 L43.8977551,23.3304683 Z M44.7934694,23.3304683 L44.7934694,22.1638017 L44.6538776,22.1638017 L44.4910204,22.997135 L44.3281633,22.1638017 L44.2040816,22.1638017 L44.2040816,23.3304683 L44.304898,23.3304683 L44.304898,22.4554683 L44.4561224,23.2138017 L44.5608163,23.2138017 L44.7120408,22.4554683 L44.7120408,23.3388017 L44.7934694,23.3304683 Z" id="Shape" fill="#F79E1B"></path>
                            </g>
                        </g>
                    </g>
                </g>
            </g>
        </g>
    </g>
</svg>