<?xml version="1.0" encoding="UTF-8"?>
<svg width="30px" height="30px" viewBox="0 0 30 30" version="1.1" xmlns="http://www.w3.org/2000/svg" xmlns:xlink="http://www.w3.org/1999/xlink">
    <!-- Generator: Sketch 64 (93537) - https://sketch.com -->
    <title>Icons/Shield</title>
    <desc>Created with Sketch.</desc>
    <g id="Symbols" stroke="none" stroke-width="1" fill="none" fill-rule="evenodd">
        <g id="Trust-Symbols/Desktop/Horz/Secure" transform="translate(0.000000, -1.000000)">
            <g id="Icons/AnPost/Shield" transform="translate(0.000000, 1.000000)">
                <g id="Group">
                    <rect id="Rectangle" fill="#FEFEFE" x="0" y="0" width="30" height="30"></rect>
                    <g id="048-secure" transform="translate(3.750000, 0.000000)">
                        <path d="M10.546875,11.484375 C10.546875,11.807785 10.8094025,12.0703125 11.1328125,12.0703125 C11.4562225,12.0703125 11.71875,11.807785 11.71875,11.484375 C11.71875,11.160965 11.4562225,10.8984375 11.1328125,10.8984375 C10.8094025,10.8984375 10.546875,11.160965 10.546875,11.484375 Z" id="Path" fill="#00A76A"></path>
                        <path d="M21.6796875,3.48403934 L21.6609192,3.48403934 C17.9917145,3.48403934 14.4277954,2.30369566 11.4823151,0.115585313 C11.2749481,-0.0386810156 10.9909058,-0.0384521484 10.7833099,0.115585313 C7.86071777,2.28767396 4.24598695,3.48403934 0.604705781,3.48403934 L0.5859375,3.48403934 C0.262298555,3.48403934 0,3.74633789 0,4.06997684 L0,14.7491455 C0,21.6471863 4.40368652,27.7878571 10.9474182,29.9700165 C11.0076141,29.9899292 11.0703278,30 11.1328125,30 C11.1955261,30 11.2580109,29.9899292 11.3182068,29.9700165 C17.8498078,27.7926636 22.265625,21.6586304 22.265625,14.7491455 L22.265625,4.06997684 C22.265625,3.74633789 22.0033264,3.48403934 21.6796875,3.48403934 Z M21.09375,14.7491455 C21.09375,21.0999298 17.0993042,26.7194367 11.1328125,28.795166 C5.29380797,26.763382 1.171875,21.2026978 1.171875,14.7491455 L1.171875,4.6472168 C4.68200684,4.53849791 8.16123961,3.41148375 11.1328125,1.30966184 C14.0657044,3.38333133 17.5318909,4.53689578 21.09375,4.6472168 L21.09375,14.7491455 Z" id="Shape" fill="#00A76A" fill-rule="nonzero"></path>
                        <path d="M10.8421325,4.26887514 C8.71971129,5.48126221 6.41899107,6.30294797 4.00405887,6.71058656 C3.72207645,6.75819398 3.515625,7.00241086 3.515625,7.28851318 L3.515625,14.7498322 C3.515625,19.5387268 6.27273562,24.0797425 10.8934021,26.1483765 C10.9696198,26.1824798 11.0511017,26.199646 11.1328125,26.199646 C11.2145233,26.199646 11.2962341,26.1824798 11.3722229,26.1483765 C15.0558472,24.4985962 17.7209473,21.1550903 18.5080719,17.2000122 C18.5128784,17.1819305 18.5163117,17.1633911 18.5192871,17.1446228 C18.6721802,16.361847 18.75,15.5564118 18.75,14.7498322 C18.75,13.9867401 18.75,8.67416379 18.75,7.28965758 C18.75,7.00378418 18.5437775,6.75956725 18.2617951,6.71195982 C15.8468628,6.30363463 13.5461426,5.48172 11.4234925,4.269104 C11.2433624,4.16610715 11.0222626,4.16610715 10.8421325,4.26887514 Z M11.1328125,24.9682617 C9.33425906,24.1131592 7.81448367,22.8156281 6.68998717,21.1834717 L17.1265412,17.9219055 C16.2295532,21.0024261 14.050827,23.5787201 11.1328125,24.9682617 Z M17.578125,8.8352966 L13.1893158,10.2067566 C12.8805542,10.3031159 12.7082062,10.6317902 12.8047943,10.9407806 C12.9009247,11.2486267 13.2286835,11.4221191 13.5388184,11.3253021 L17.578125,10.0630188 L17.578125,14.7498322 C17.578125,15.3717041 17.5266266,15.9926605 17.4263763,16.6003418 L6.05735777,20.1532746 C5.16059877,18.5009766 4.6875,16.6431427 4.6875,14.7498322 L4.6875,14.0913391 L9.06463623,12.7233124 C9.37339781,12.6267243 9.54574582,12.2980499 9.44915771,11.9892884 C9.35256961,11.6802979 9.02389523,11.5079498 8.71513365,11.6047669 L4.6875,12.863388 L4.6875,7.77809145 C6.95159912,7.34367369 9.11613463,6.56181334 11.1328125,5.44967648 C13.1497192,6.56204227 15.3140259,7.34413148 17.578125,7.77923584 L17.578125,8.8352966 Z" id="Shape" fill="#94EB5A" fill-rule="nonzero"></path>
                    </g>
                </g>
            </g>
        </g>
    </g>
</svg>