<?xml version="1.0" encoding="UTF-8"?>
<svg width="48px" height="40px" viewBox="0 0 48 40" version="1.1" xmlns="http://www.w3.org/2000/svg" xmlns:xlink="http://www.w3.org/1999/xlink">
    <!-- Generator: Sketch 62 (91390) - https://sketch.com -->
    <title>Group@2x</title>
    <desc>Created with Sketch.</desc>
    <g id="Symbols" stroke="none" stroke-width="1" fill="none" fill-rule="evenodd">
        <g id="An-Post-credit-card" transform="translate(0.000000, -4.000000)">
            <g id="Group" transform="translate(0.000000, 4.000000)">
                <path d="M33.375,28.125 C32.857544,28.125 32.4375,28.545044 32.4375,29.0625 C32.4375,29.579956 32.857544,30 33.375,30 C33.892456,30 34.3125,29.579956 34.3125,29.0625 C34.3125,28.545044 33.892456,28.125 33.375,28.125 Z" id="Path" fill="#FFC845"></path>
                <path d="M45.1875,0 L10.875,0 C9.32409666,0 8.0625,1.26159666 8.0625,2.8125 L8.0625,11.25 L2.8125,11.25 C1.26159666,11.25 0,12.5115967 0,14.0625 L0,36.5625 C0,38.1134033 1.26159666,39.375 2.8125,39.375 L37.6875,39.375 C39.2384033,39.375 40.5,38.1134033 40.5,36.5625 L40.5,28.125 L45.1875,28.125 C46.7384033,28.125 48,26.8634033 48,25.3125 L48,2.8125 C48,1.26159666 46.7384033,0 45.1875,0 Z M10.875,1.875 L45.1875,1.875 C45.7045898,1.875 46.125,2.29541016 46.125,2.8125 L46.125,5.625 L9.9375,5.625 L9.9375,2.8125 C9.9375,2.29541016 10.3579102,1.875 10.875,1.875 Z M9.9375,7.5 L46.125,7.5 L46.125,11.25 C45.7247315,11.25 10.3945312,11.25 9.9375,11.25 L9.9375,7.5 Z M38.625,36.5625 C38.625,37.0795898 38.2045898,37.5 37.6875,37.5 L2.8125,37.5 C2.29541016,37.5 1.875,37.0795898 1.875,36.5625 L1.875,14.0625 C1.875,13.5454102 2.29541016,13.125 2.8125,13.125 L37.6875,13.125 C38.2045898,13.125 38.625,13.5454102 38.625,14.0625 L38.625,36.5625 Z M45.1875,26.25 L40.5,26.25 L40.5,14.0625 C40.5,13.7336426 40.4428711,13.4183349 40.3388672,13.125 L46.125,13.125 L46.125,25.3125 C46.125,25.8295898 45.7045898,26.25 45.1875,26.25 Z" id="Shape" fill="#00A76A" fill-rule="nonzero"></path>
                <path d="M30.5625,16.875 C29.4433594,16.875 28.4377442,17.3686523 27.75,18.1486817 C27.0622558,17.3686523 26.0566406,16.875 24.9375,16.875 C22.869873,16.875 21.1875,18.557373 21.1875,20.625 C21.1875,22.692627 22.869873,24.375 24.9375,24.375 C26.0566406,24.375 27.0622558,23.8813477 27.75,23.1013183 C28.4377442,23.8813477 29.4433594,24.375 30.5625,24.375 C32.630127,24.375 34.3125,22.692627 34.3125,20.625 C34.3125,18.557373 32.630127,16.875 30.5625,16.875 Z M24.9375,22.5 C23.9036865,22.5 23.0625,21.6588135 23.0625,20.625 C23.0625,19.5911865 23.9036865,18.75 24.9375,18.75 C25.9713135,18.75 26.8125,19.5911865 26.8125,20.625 C26.8125,21.6588135 25.9713135,22.5 24.9375,22.5 Z M30.5625,22.5 C29.5286865,22.5 28.6875,21.6588135 28.6875,20.625 C28.6875,19.5911865 29.5286865,18.75 30.5625,18.75 C31.5963135,18.75 32.4375,19.5911865 32.4375,20.625 C32.4375,21.6588135 31.5963135,22.5 30.5625,22.5 Z" id="Shape" fill="#00A76A" fill-rule="nonzero"></path>
                <path d="M7.125,24.375 L14.625,24.375 C15.1428223,24.375 15.5625,23.9553223 15.5625,23.4375 L15.5625,17.8125 C15.5625,17.2946777 15.1428223,16.875 14.625,16.875 L7.125,16.875 C6.60717769,16.875 6.1875,17.2946777 6.1875,17.8125 L6.1875,23.4375 C6.1875,23.9553223 6.60717769,24.375 7.125,24.375 Z M8.0625,18.75 L13.6875,18.75 L13.6875,22.5 L8.0625,22.5 L8.0625,18.75 Z" id="Shape" fill="#FFC845" fill-rule="nonzero"></path>
                <path d="M7.125,30 L29.625,30 C30.1428223,30 30.5625,29.5803223 30.5625,29.0625 C30.5625,28.5446777 30.1428223,28.125 29.625,28.125 L7.125,28.125 C6.60717769,28.125 6.1875,28.5446777 6.1875,29.0625 C6.1875,29.5803223 6.60717769,30 7.125,30 Z" id="Path" fill="#FFC845"></path>
                <path d="M10.875,31.875 L7.125,31.875 C6.60717769,31.875 6.1875,32.2946777 6.1875,32.8125 C6.1875,33.3303223 6.60717769,33.75 7.125,33.75 L10.875,33.75 C11.3928223,33.75 11.8125,33.3303223 11.8125,32.8125 C11.8125,32.2946777 11.3928223,31.875 10.875,31.875 Z" id="Path" fill="#FFC845"></path>
                <path d="M18.375,31.875 L14.625,31.875 C14.1071777,31.875 13.6875,32.2946777 13.6875,32.8125 C13.6875,33.3303223 14.1071777,33.75 14.625,33.75 L18.375,33.75 C18.8928223,33.75 19.3125,33.3303223 19.3125,32.8125 C19.3125,32.2946777 18.8928223,31.875 18.375,31.875 Z" id="Path" fill="#FFC845"></path>
                <path d="M25.875,31.875 L22.125,31.875 C21.6071777,31.875 21.1875,32.2946777 21.1875,32.8125 C21.1875,33.3303223 21.6071777,33.75 22.125,33.75 L25.875,33.75 C26.3928223,33.75 26.8125,33.3303223 26.8125,32.8125 C26.8125,32.2946777 26.3928223,31.875 25.875,31.875 Z" id="Path" fill="#FFC845"></path>
                <path d="M33.375,31.875 L29.625,31.875 C29.1071777,31.875 28.6875,32.2946777 28.6875,32.8125 C28.6875,33.3303223 29.1071777,33.75 29.625,33.75 L33.375,33.75 C33.8928223,33.75 34.3125,33.3303223 34.3125,32.8125 C34.3125,32.2946777 33.8928223,31.875 33.375,31.875 Z" id="Path" fill="#FFC845"></path>
            </g>
        </g>
    </g>
</svg>