<?xml version="1.0" encoding="UTF-8"?>
<svg width="45px" height="48px" viewBox="0 0 45 48" version="1.1" xmlns="http://www.w3.org/2000/svg" xmlns:xlink="http://www.w3.org/1999/xlink">
    <!-- Generator: Sketch 62 (91390) - https://sketch.com -->
    <title>diamond@2x</title>
    <desc>Created with Sketch.</desc>
    <g id="Symbols" stroke="none" stroke-width="1" fill="none" fill-rule="evenodd">
        <g id="Offers" transform="translate(-1.000000, 0.000000)">
            <g id="diamond" transform="translate(1.000000, 0.000000)">
                <path d="M44.6586563,20.13675 L38.0274375,12.7641563 C37.951875,12.6801563 37.8646875,12.6092813 37.7705625,12.5505 C37.6155937,12.409125 37.4143125,12.3497813 37.22025,12.3707813 C37.1915625,12.3687188 37.162875,12.3661875 37.134,12.3661875 L32.6445,12.3661875 C32.2554375,12.3661875 31.9400625,12.6816563 31.9400625,13.0707187 C31.9400625,13.4597812 32.2554375,13.7751563 32.6445,13.7751563 L35.6649375,13.7751563 L29.8980938,19.8984375 L24.1311563,13.7751563 L27.603375,13.7751563 C27.9924375,13.7751563 28.3079062,13.4597812 28.3079062,13.0707187 C28.3079062,12.6816562 27.9925313,12.3661875 27.603375,12.3661875 L7.86590625,12.3661875 C7.83684375,12.3661875 7.80815625,12.3687187 7.779375,12.3707813 C7.58540625,12.3499688 7.38421875,12.4092188 7.22934375,12.5505 C7.135125,12.609375 7.0479375,12.68025 6.972375,12.7643438 L0.34096875,20.1370312 C-0.05934375,20.58225 -0.0740625,21.2412187 0.3061875,21.7037812 L4.3798125,26.6596875 C4.519125,26.8291875 4.72096875,26.9169375 4.9245,26.9168437 C5.08190625,26.9168437 5.24034375,26.8643437 5.37140625,26.756625 C5.67196875,26.5095937 5.715375,26.0655937 5.46834375,25.7650312 L2.0698125,21.6305625 L14.36025,21.6305625 L21.0824063,44.7608437 L8.57775,29.5478437 C8.33071875,29.2472812 7.88671875,29.203875 7.58615625,29.4509062 C7.28559375,29.6979375 7.2421875,30.1419375 7.4893125,30.4425 L21.5604375,47.5611562 C21.7895625,47.839875 22.1278125,47.9998125 22.4885625,47.9998125 C22.4886563,47.9998125 22.48875,47.9998125 22.4888438,47.9998125 C22.8495,47.9998125 23.18775,47.8400625 23.416875,47.5615312 L44.6931563,21.7039687 C45.0737812,21.2414062 45.0593438,20.58225 44.6586563,20.13675 Z M37.3146562,14.0785312 L42.8399062,20.2215 L31.52925,20.2215 L37.3146562,14.0785312 Z M28.2668438,20.2215 L16.7330625,20.2215 L22.5,14.0982187 L28.2668438,20.2215 Z M2.16,20.2215938 L7.68525,14.078625 L13.4705625,20.2215938 L2.16,20.2215938 Z M9.33496875,13.7751563 L20.86875,13.7751563 L15.1018125,19.8984375 L9.33496875,13.7751563 Z M22.5,44.5896562 L15.8275313,21.6304687 L29.172375,21.6304687 L22.5,44.5896562 Z M23.92875,44.7220313 L30.6396563,21.6304688 L42.9290625,21.6304688 L23.92875,44.7220313 Z" id="Shape" fill="#00A76A" fill-rule="nonzero"></path>
                <path d="M22.499625,0 C22.1105625,0 21.7951875,0.315375 21.7951875,0.7044375 L21.7951875,3.9763125 C21.7951875,4.365375 22.1105625,4.68075 22.499625,4.68075 C22.8886875,4.68075 23.2041563,4.365375 23.2040625,3.9763125 L23.2040625,0.7044375 C23.2040625,0.315375 22.8886875,0 22.499625,0 Z" id="Path" fill="#FFC845"></path>
                <path d="M17.5344375,5.1178125 L15.8985,2.28421875 C15.7039687,1.94728125 15.2730937,1.83178125 14.9361562,2.02640625 C14.5992188,2.2209375 14.4838125,2.6518125 14.6783437,2.98875 L16.3142812,5.82234375 C16.4447812,6.048375 16.6815937,6.17475 16.9250625,6.17475 C17.0445937,6.17475 17.1657187,6.144375 17.276625,6.08015625 C17.6135625,5.885625 17.7289687,5.45475 17.5344375,5.1178125 Z" id="Path" fill="#FFC845"></path>
                <path d="M13.1954062,8.94140625 L10.3619062,7.30546875 C10.024875,7.11084375 9.59409375,7.22634375 9.3995625,7.56328125 C9.2049375,7.90021875 9.3204375,8.33109375 9.657375,8.525625 L12.490875,10.1615625 C12.6017812,10.2255938 12.7229062,10.2560625 12.8424375,10.2560625 C13.0859063,10.2560625 13.3227187,10.1296875 13.4532187,9.90375 C13.6478437,9.5668125 13.5323437,9.1359375 13.1954062,8.94140625 Z" id="Path" fill="#FFC845"></path>
                <path d="M35.5997812,7.5631875 C35.40525,7.22625 34.974375,7.11084375 34.6374375,7.305375 L31.8038438,8.9413125 C31.467,9.13584375 31.3515,9.56671875 31.5460313,9.90365625 C31.6765313,10.1296875 31.9133438,10.2560625 32.1568125,10.2560625 C32.27625,10.2560625 32.397375,10.2255938 32.508375,10.1614688 L35.3419687,8.52553125 C35.6788125,8.331 35.7943125,7.900125 35.5997812,7.5631875 Z" id="Path" fill="#FFC845"></path>
                <path d="M30.0630938,2.0265 C29.7261563,1.83178125 29.2952813,1.947375 29.10075,2.2843125 L27.4648125,5.11790625 C27.2701875,5.45484375 27.3856875,5.88571875 27.722625,6.08025 C27.8335313,6.14428125 27.9546563,6.17475 28.0741875,6.17475 C28.3176563,6.17475 28.5544688,6.048375 28.6849688,5.8224375 L30.3209063,2.98884375 C30.5155313,2.65190625 30.4000313,2.22103125 30.0630938,2.0265 Z" id="Path" fill="#FFC845"></path>
            </g>
        </g>
    </g>
</svg>