<?xml version="1.0" encoding="UTF-8"?>
<svg width="384px" height="320px" viewBox="0 0 384 320" version="1.1" xmlns="http://www.w3.org/2000/svg" xmlns:xlink="http://www.w3.org/1999/xlink">
    <!-- Generator: Sketch 64 (93537) - https://sketch.com -->
    <title>Path</title>
    <desc>Created with Sketch.</desc>
    <g id="Page-1" stroke="none" stroke-width="1" fill="none" fill-rule="evenodd">
        <g id="arrow" fill="#FFFFFF" fill-rule="nonzero">
            <path d="M368,144 L48.808,144 L171.032,27.584 C177.432,21.488 177.68,11.36 171.584,4.96 C165.496,-1.432 155.368,-1.688 148.96,4.408 L9.376,137.368 C3.336,143.416 -2.84217094e-14,151.448 -2.84217094e-14,160 C-2.84217094e-14,168.544 3.336,176.584 9.656,182.896 L148.968,315.584 C152.064,318.536 156.032,320 160,320 C164.224,320 168.448,318.336 171.592,315.032 C177.688,308.632 177.44,298.512 171.04,292.416 L48.304,176 L368,176 C376.832,176 384,168.832 384,160 C384,151.168 376.832,144 368,144 L368,144 Z" id="Path"></path>
        </g>
    </g>
</svg>