<?xml version="1.0" encoding="UTF-8"?>
<svg width="48px" height="48px" viewBox="0 0 48 48" version="1.1" xmlns="http://www.w3.org/2000/svg" xmlns:xlink="http://www.w3.org/1999/xlink">
    <!-- Generator: Sketch 62 (91390) - https://sketch.com -->
    <title>percentage@2x</title>
    <desc>Created with Sketch.</desc>
    <g id="Symbols" stroke="none" stroke-width="1" fill="none" fill-rule="evenodd">
        <g id="Refinance-Loan">
            <g id="percentage">
                <path d="M40.9705313,7.0295625 C36.4375312,2.496375 30.4107187,0 24,0 C17.589375,0 11.5624688,2.496375 7.029375,7.0295625 C2.496375,11.5624688 0,17.5892812 0,24 C0,30.4107187 2.496375,36.4375313 7.029375,40.9705313 C11.5624688,45.503625 17.589375,48 24,48 C30.4107187,48 36.4375313,45.503625 40.9705313,40.9705313 C45.503625,36.4375312 48,30.4107187 48,24 C48,17.5892813 45.503625,11.5624688 40.9705313,7.0295625 Z M24,46.0876875 C11.8208437,46.0876875 1.9123125,36.17925 1.9123125,24 C1.9123125,11.82075 11.8208437,1.9123125 24,1.9123125 C36.1791563,1.9123125 46.0876875,11.8208437 46.0876875,24 C46.0876875,36.1791563 36.1791563,46.0876875 24,46.0876875 Z" id="Shape" fill="#00A76A" fill-rule="nonzero"></path>
                <path d="M36.3391875,11.6472187 C35.034375,10.3425 32.9112187,10.3425 31.6064062,11.6472187 L11.6665312,31.587 C11.0267812,32.22675 10.6767187,33.0774375 10.6807156,33.982125 C10.6847812,34.887 11.0425312,35.7344062 11.6880937,36.3685312 C12.340875,37.0095937 13.1938125,37.3294687 14.0464687,37.3294687 C14.9115937,37.3294687 15.7763437,37.000125 16.4311875,36.3426562 L36.339375,16.38 C37.644,15.0752812 37.644,12.9520312 36.3391875,11.6472187 Z M34.986,15.0286875 L15.0765,34.99275 C14.5148438,35.55675 13.5959063,35.5619062 13.0279688,35.0040937 C12.74925,34.7303438 12.59475,34.3643438 12.592861,33.9734062 C12.5911875,33.58275 12.7423125,33.2154375 13.0186875,32.93925 L32.9584688,12.999375 C33.5177813,12.4404375 34.4277188,12.4403438 34.9869375,12.9992812 C35.5460625,13.5586875 35.5460625,14.468625 34.986,15.0286875 Z" id="Shape" fill="#FFC845" fill-rule="nonzero"></path>
                <path d="M16.398375,12.1434375 C14.0520937,12.1434375 12.1434375,14.0522812 12.1434375,16.398375 C12.1434375,18.7445625 14.0521875,20.6533125 16.398375,20.6533125 C18.7445625,20.6533125 20.6533125,18.7444687 20.6533125,16.398375 C20.6534062,14.0522812 18.7446562,12.1434375 16.398375,12.1434375 Z M16.398375,18.741 C15.1066875,18.741 14.05575,17.6901562 14.05575,16.398375 C14.05575,15.1065937 15.1066875,14.05575 16.398375,14.05575 C17.6900625,14.05575 18.741,15.1065937 18.741,16.398375 C18.741,17.6901562 17.6900625,18.741 16.398375,18.741 Z" id="Shape" fill="#FFC845" fill-rule="nonzero"></path>
                <path d="M31.601625,27.3465938 C29.2554375,27.3465938 27.3466875,29.2554375 27.3466875,31.6015313 C27.3466875,33.947625 29.2555313,35.8564688 31.601625,35.8564688 C33.9477188,35.8564688 35.8565625,33.947625 35.8565625,31.6015313 C35.8565625,29.2554375 33.9477187,27.3465938 31.601625,27.3465938 Z M31.601625,33.94425 C30.3098438,33.94425 29.259,32.8934062 29.259,31.601625 C29.259,30.3098437 30.3098438,29.259 31.601625,29.259 C32.8934063,29.259 33.94425,30.3098437 33.94425,31.601625 C33.94425,32.8934062 32.8934063,33.94425 31.601625,33.94425 Z" id="Shape" fill="#FFC845" fill-rule="nonzero"></path>
                <path d="M43.3247813,27.949875 C42.8125312,27.8196562 42.2925,28.12875 42.1622812,28.6405312 C40.04775,36.9426562 32.57925,42.741 24,42.741 C23.4719062,42.741 23.0438438,43.1691563 23.0438438,43.6971562 C23.0438438,44.2251562 23.4719062,44.6533125 24,44.6533125 C33.4544062,44.6533125 41.685,38.2626562 44.0154375,29.1122813 C44.14575,28.6006875 43.8366563,28.0801875 43.3247813,27.949875 Z" id="Path" fill="#00A76A"></path>
                <path d="M43.69725,23.0438438 C43.16925,23.0438438 42.7410937,23.472 42.7410937,24 C42.7410937,24.2732813 42.7351875,24.5489063 42.7234688,24.8192812 C42.7005937,25.3469062 43.1098125,25.7930625 43.6374375,25.8158437 C43.6515,25.8165 43.6654688,25.8167812 43.6794375,25.8167812 C44.1885,25.8167812 44.6117812,25.4153438 44.634,24.901875 C44.6469375,24.604125 44.6534063,24.30075 44.6534063,24 C44.6534063,23.472 44.22525,23.0438438 43.69725,23.0438438 Z" id="Path" fill="#00A76A"></path>
            </g>
        </g>
    </g>
</svg>