<?xml version="1.0" encoding="UTF-8"?>
<svg width="48px" height="48px" viewBox="0 0 48 48" version="1.1" xmlns="http://www.w3.org/2000/svg" xmlns:xlink="http://www.w3.org/1999/xlink">
    <!-- Generator: Sketch 62 (91390) - https://sketch.com -->
    <title>switch@2x</title>
    <desc>Created with Sketch.</desc>
    <g id="Symbols" stroke="none" stroke-width="1" fill="none" fill-rule="evenodd">
        <g id="Money-transfer" fill-rule="nonzero">
            <g id="switch">
                <path d="M32.836875,4.5705 C32.6615625,4.396125 32.420625,4.2958125 32.1740625,4.2958125 C31.9265625,4.2958125 31.685625,4.396125 31.5103125,4.5705 C31.3359375,4.744875 31.2365625,4.98675 31.2365625,5.2333125 C31.2365625,5.479875 31.3359375,5.72175 31.5103125,5.896125 C31.685625,6.0705 31.9265625,6.1708125 32.1740625,6.1708125 C32.420625,6.1708125 32.6615625,6.0705 32.836875,5.896125 C33.01125,5.72175 33.110625,5.479875 33.110625,5.2333125 C33.110625,4.98675 33.01125,4.744875 32.836875,4.5705 Z" id="Shape" fill="#FFC845"></path>
                <path d="M47.7254063,32.7203438 L34.3291875,19.3242188 C33.7842188,18.77925 32.971875,18.6174375 32.2598438,18.9125625 C31.5477188,19.2075 31.0876875,19.8961875 31.0876875,20.6669063 L31.0876875,23.0623125 L16.9123125,23.0623125 L16.9123125,19.7896875 C16.9123125,18.8632292 16.5998125,18.4 15.9748125,18.4 C15.3498125,18.4 15.0373125,18.8632292 15.0373125,19.7896875 L15.0373125,27.3331875 C15.0179375,27.3509375 10.7599375,23.1120938 2.2633125,14.6166563 L14.996625,1.88334375 C15.0228125,1.88453125 15.036375,3.001125 15.0373125,5.233125 C15.0373125,5.75090625 15.4570312,6.170625 15.9748125,6.170625 L28.3219687,6.170625 C28.83975,6.170625 29.2594688,5.75090625 29.2594688,5.233125 C29.2594688,4.71534375 28.83975,4.295625 28.3219687,4.295625 L16.9123125,4.295625 L16.9123125,1.90021875 C16.9123125,1.1295 16.4521875,0.44090625 15.7401562,0.145875 C15.0280312,-0.1490625 14.215875,0.0125625 13.6708125,0.55753125 L0.27459375,13.95375 C-0.0915,14.3198438 -0.0915,14.9134688 0.27459375,15.2795625 L13.6709063,28.675875 C14.215875,29.2208438 15.0282188,29.382375 15.74025,29.0874375 C16.4522813,28.7925 16.9124063,28.1039063 16.9124063,27.3331875 L16.9124063,24.9373125 L31.086,24.9373125 L31.086,29.4600938 C31.178564,30.0877631 31.4915953,30.4010652 32.0250937,30.4 C32.5502893,30.3989514 32.862258,30.0856493 32.961,29.4600938 L32.9626875,20.6669063 C32.9819375,20.6491563 37.2399375,24.8879688 45.7366875,33.3833438 L33.003375,46.1166563 C32.977125,46.1155313 32.9635313,44.9989063 32.9625938,42.7667813 C32.9625938,42.249 32.542875,41.8292813 32.0250938,41.8292813 L15.75,41.8292813 C15.2322188,41.8292813 14.8125,42.249 14.8125,42.7667813 C14.8125,43.2845625 15.2322188,43.7042813 15.75,43.7042813 L31.0876875,43.7042813 L31.0876875,46.0997813 C31.0876875,46.8705 31.5478125,47.5590938 32.2598437,47.8540313 C32.4961875,47.9519063 32.7435,47.9995313 32.9884687,47.9995313 C33.4815937,47.9995313 33.9650625,47.8065938 34.3291875,47.4424688 L47.7254063,34.04625 C48.0915,33.6800625 48.0915,33.0864375 47.7254063,32.7203438 Z" id="Shape" fill="#00A76A"></path>
                <path d="M12.13125,42.10425 C11.956875,41.9289375 11.7159375,41.8295625 11.4684375,41.8295625 C11.221875,41.8295625 10.98,41.9289375 10.805625,42.10425 C10.63125,42.278625 10.5309375,42.5205 10.5309375,42.7670625 C10.5309375,43.013625 10.63125,43.2555 10.805625,43.429875 C10.98,43.60425 11.221875,43.7045625 11.4684375,43.7045625 C11.7159375,43.7045625 11.956875,43.60425 12.13125,43.429875 C12.3065625,43.2555 12.4059375,43.013625 12.4059375,42.7670625 C12.4059375,42.5205 12.3065625,42.278625 12.13125,42.10425 Z" id="Shape" fill="#FFC845"></path>
                <path d="M34.0624688,8.0626875 L23.4923437,8.0626875 C22.9745625,8.0626875 22.5548437,8.48240625 22.5548437,9.0001875 C22.5548437,9.51796875 22.9745625,9.9376875 23.4923437,9.9376875 L34.0624688,9.9376875 C34.58025,9.9376875 34.9999688,9.51796875 34.9999688,9.0001875 C34.9999688,8.48240625 34.58025,8.0626875 34.0624688,8.0626875 Z" id="Shape" fill="#FFC845"></path>
                <path d="M47.1562961,4.32 L37.6437039,4.32 C37.1777262,4.32 36.8,4.73971875 36.8,5.2575 C36.8,5.77528125 37.1777262,6.195 37.6437039,6.195 L47.1562961,6.195 C47.6222738,6.195 48,5.77528125 48,5.2575 C48,4.73971875 47.6222738,4.32 47.1562961,4.32 Z" id="Shape" fill="#00A76A"></path>
                <path d="M29.4199687,38.0626875 L18.8499375,38.0626875 C18.3321563,38.0626875 17.9124375,38.4824062 17.9124375,39.0001875 C17.9124375,39.5179688 18.3321563,39.9376875 18.8499375,39.9376875 L29.4199687,39.9376875 C29.93775,39.9376875 30.3574687,39.5179688 30.3574687,39.0001875 C30.3574687,38.4824062 29.93775,38.0626875 29.4199687,38.0626875 Z" id="Shape" fill="#FFC845"></path>
                <path d="M7.39735439,41.824 L0.602645614,41.824 C0.269804441,41.824 0,42.2437187 0,42.7615 C0,43.2792812 0.269804441,43.699 0.602645614,43.699 L7.39735439,43.699 C7.73019556,43.699 8,43.2792812 8,42.7615 C8,42.2437187 7.73019556,41.824 7.39735439,41.824 Z" id="Shape" fill="#00A76A"></path>
            </g>
        </g>
    </g>
</svg>