<?xml version="1.0" encoding="UTF-8"?>
<svg width="47px" height="49px" viewBox="0 0 47 49" version="1.1" xmlns="http://www.w3.org/2000/svg" xmlns:xlink="http://www.w3.org/1999/xlink">
    <!-- Generator: Sketch 62 (91390) - https://sketch.com -->
    <title>thumbs-up@2x</title>
    <desc>Created with Sketch.</desc>
    <g id="Symbols" stroke="none" stroke-width="1" fill="none" fill-rule="evenodd">
        <g id="An-Post-Money-/-Icons-/-48px-/-Thumbs-Up-Approval" transform="translate(0.000000, 1.000000)">
            <g transform="translate(1.000000, 0.000000)" id="thumbs-up">
                <g>
                    <path d="M32.6464865,47.3513514 L15.0551351,47.3513514 C6.87499159,47.4198193 0.180530413,40.8587833 0.0843243243,32.6789189 C0.165948785,28.5605169 1.94235108,24.6580638 4.99459459,21.8918919 C8.49081081,18.6097297 10.4172973,14.5945946 10.4172973,10.5794595 L10.4172973,5.91567568 C10.3879792,4.75843694 10.8753386,3.64820845 11.747027,2.88648649 C12.6687135,2.13127642 13.8793624,1.82683035 15.0486486,2.05621622 C16.9556757,2.36108108 18.2918919,4.15135135 18.2918919,6.40864865 L18.2464865,18.1621622 L35.76,18.1621622 C36.8057703,18.1156134 37.8229652,18.5106819 38.5631687,19.2508854 C39.3033722,19.9910889 39.6984407,21.0082837 39.6518919,22.0540541 C39.7150934,23.3821897 39.0615225,24.6422941 37.9394595,25.3556757 C39.044314,26.2764545 39.6737248,27.6473301 39.6518919,29.0854054 C39.7043291,30.4372228 39.051015,31.7192904 37.9264865,32.4713514 C39.0460881,33.3478421 39.6857754,34.7017666 39.6518919,36.1232432 C39.713194,37.1889775 39.3288524,38.2322574 38.5908075,39.0035143 C37.8527627,39.7747712 36.8273993,40.204633 35.76,40.1902703 L35.5394595,40.1902703 C36.3469402,40.9705759 36.8132512,42.0384282 36.8367568,43.1610811 C36.8402168,44.273467 36.3998543,45.3412901 35.6132749,46.1278695 C34.8266955,46.9144489 33.7588724,47.3548114 32.6464865,47.3513514 Z M14.2702703,3.28864865 C13.6545467,3.27615521 13.0544545,3.48308354 12.5772973,3.87243243 C11.9936453,4.38764581 11.6721886,5.13771157 11.7016216,5.91567568 L11.7016216,10.5794595 C11.7016216,14.9578378 9.63243243,19.3102703 5.86378378,22.8389189 C3.08059223,25.3633176 1.45949048,28.9222342 1.38162162,32.6789189 C1.47423461,40.1438277 7.58999987,46.126137 15.0551351,46.0540541 L32.6464865,46.0540541 C34.2320043,46.0504871 35.516433,44.7660584 35.52,43.1805405 C35.4652114,41.5515737 34.1462996,40.2497536 32.5167568,40.2162162 L25.3816216,40.2162162 C25.0233829,40.2162162 24.732973,39.9258063 24.732973,39.5675676 C24.732973,39.2093288 25.0233829,38.9189189 25.3816216,38.9189189 L35.76,38.9189189 C37.2972973,38.9189189 38.3545946,37.8097297 38.3545946,36.1491892 C38.3545946,34.6443243 37.3881081,33.0810811 35.76,33.0810811 L25.3816216,33.0810811 C25.0233829,33.0810811 24.732973,32.7906712 24.732973,32.4324324 C24.732973,32.0741937 25.0233829,31.7837838 25.3816216,31.7837838 L35.76,31.7837838 C36.4741702,31.8262537 37.1714127,31.555507 37.6697688,31.0422001 C38.168125,30.5288933 38.4181498,29.8239547 38.3545946,29.1113514 C38.3545946,27.5935135 37.3686486,25.9459459 35.76,25.9459459 L25.3816216,25.9459459 C25.0233829,25.9459459 24.732973,25.6555361 24.732973,25.2972973 C24.732973,24.9390585 25.0233829,24.6486486 25.3816216,24.6486486 L35.76,24.6486486 C36.4659594,24.7132417 37.1641061,24.4607079 37.66538,23.959434 C38.1666539,23.4581601 38.4191877,22.7600135 38.3545946,22.0540541 C38.4031793,21.3521545 38.1454635,20.6636016 37.647958,20.1660961 C37.1504525,19.6685905 36.4618996,19.4108747 35.76,19.4594595 L17.5978378,19.4594595 C17.4254251,19.4604563 17.2597095,19.3927696 17.1372973,19.2713514 C17.015879,19.1489391 16.9481924,18.9832236 16.9491892,18.8108108 L16.9881081,6.40216216 C16.9881081,5.10486486 16.3394595,3.57405405 14.8410811,3.33405405 C14.6524929,3.30235143 14.4614988,3.28715872 14.2702703,3.28864865 Z" id="Shape" stroke="#FFFFFF" stroke-width="0.5" fill="#FFFFFF" fill-rule="nonzero"></path>
                    <path d="M33.6,14.0951598 C33.4136905,14.0948992 33.2364777,14.0145628 33.1135135,13.8745946 L29.532973,9.72972973 C29.3403377,9.56665373 29.2597879,9.30664416 29.3264931,9.06322568 C29.3931983,8.81980721 29.5950448,8.6371841 29.8439031,8.59509277 C30.0927614,8.55300144 30.3434393,8.65908559 30.4864865,8.86702703 L33.6,12.4540541 L43.8616216,0.531891892 C44.0993286,0.274377182 44.4985978,0.252239034 44.7633167,0.481895899 C45.0280357,0.711552763 45.0624696,1.10994991 44.8410811,1.38162162 L34.1318919,13.8227027 C34.056169,13.9295274 33.9498886,14.0109337 33.827027,14.0562162 C33.7542792,14.0826293 33.6773915,14.0958101 33.6,14.0951598 Z" id="Path" stroke="#FFC845" fill="#FFC845"></path>
                </g>
            </g>
        </g>
    </g>
</svg>