<?xml version="1.0" encoding="UTF-8"?>
<svg width="32px" height="32px" viewBox="0 0 32 32" version="1.1" xmlns="http://www.w3.org/2000/svg" xmlns:xlink="http://www.w3.org/1999/xlink">
    <!-- Generator: Sketch 62 (91390) - https://sketch.com -->
    <title>tick in circle@2x</title>
    <desc>Created with Sketch.</desc>
    <g id="Symbols" stroke="none" stroke-width="1" fill="none" fill-rule="evenodd">
        <g id="Tick-Reverse">
            <g id="tick-in-circle">
                <g id="support-copy">
                    <path d="M26.8691521,5.86500978 C26.708577,5.86500978 26.5480019,5.80336256 26.4261696,5.68006824 L26.3730507,5.6269493 C26.1296296,5.38328458 26.1296296,4.98854774 26.3730507,4.74488303 C26.6167154,4.50121831 27.0114523,4.50146196 27.255117,4.74488303 L27.3123781,4.8023879 C27.5548245,5.04727092 27.5526316,5.44200783 27.3079922,5.68445418 C27.1864035,5.80482458 27.0277777,5.86500978 26.8691521,5.86500978 Z" id="Path" fill="#FFC845"></path>
                    <path d="M15.9656433,32 C11.7010234,32 7.69176415,30.3391813 4.67616961,27.3238304 C1.66057506,24.3082359 0,20.2989766 0,16.0343567 C0,11.7697369 1.66081871,7.76047757 4.67616961,4.74488303 C10.127924,-0.706871329 18.6834795,-1.49074077 25.0194932,2.88084797 C25.3031189,3.07651069 25.374269,3.46491228 25.1788499,3.74829436 C24.9831872,4.03192009 24.5947856,4.10307019 24.3111598,3.90740741 C18.4710039,-0.122076008 10.584308,0.601120873 5.55823588,5.6269493 C-0.180311891,11.3654971 -0.180311891,20.7032164 5.55823588,26.4417641 C11.2970273,32.1805555 20.6345029,32.1805555 26.3730507,26.4417641 C31.2843567,21.5307017 32.0855263,13.7597466 28.2780214,7.96418127 C28.0889376,7.67641326 28.1688596,7.28971733 28.4568714,7.10063351 C28.7446394,6.91130604 29.1313353,6.99147172 29.3204191,7.27948345 C31.3065302,10.3023879 32.207115,13.9612573 31.8567251,17.5818713 C31.5012183,21.252193 29.8672027,24.7117446 27.255117,27.3238304 C24.2395224,30.3391813 20.2302631,32 15.9656433,32 Z" id="Path" fill="#FFFFFF"></path>
                </g>
                <path d="M20.4276223,12.2430657 C20.1034517,11.9189781 19.5781062,11.9189781 19.2538526,12.2430657 L13.8440322,17.4309901 L12.0835021,15.6704599 C11.7593315,15.3463723 11.2339859,15.3463723 10.9097324,15.6704599 C10.5856448,15.9945475 10.5856448,16.5200591 10.9097324,16.8442297 L13.2571889,19.1915202 C13.4128837,19.3471321 13.6239349,19.4346067 13.8440322,19.4346067 C14.0641296,19.4346067 14.2751808,19.3471321 14.4308756,19.1915202 L20.4276223,13.4167525 C20.7517099,13.0926649 20.7517099,12.5671533 20.4276223,12.2430657 Z" id="Path" fill="#FFC845"></path>
            </g>
        </g>
    </g>
</svg>