<?xml version="1.0" encoding="UTF-8"?>
<svg width="48px" height="48px" viewBox="0 0 48 48" version="1.1" xmlns="http://www.w3.org/2000/svg" xmlns:xlink="http://www.w3.org/1999/xlink">
    <!-- Generator: Sketch 62 (91390) - https://sketch.com -->
    <title>wallet@2x</title>
    <desc>Created with Sketch.</desc>
    <g id="Symbols" stroke="none" stroke-width="1" fill="none" fill-rule="evenodd">
        <g id="Moneyback" transform="translate(-1.000000, 0.000000)">
            <g id="wallet" transform="translate(1.000000, 0.000000)">
                <path d="M31.5,31.5 C30.982544,31.5 30.5625,31.920044 30.5625,32.4375 C30.5625,32.954956 30.982544,33.375 31.5,33.375 C32.017456,33.375 32.4375,32.954956 32.4375,32.4375 C32.4375,31.920044 32.017456,31.5 31.5,31.5 Z" id="Path" fill="#FFC845"></path>
                <path d="M11.25,15.5625 C11.7678223,15.5625 12.1875,15.1428223 12.1875,14.625 L12.1875,10.875 C12.1875,10.3571777 11.7678223,9.9375 11.25,9.9375 C10.7321777,9.9375 10.3125,10.3571777 10.3125,10.875 L10.3125,14.625 C10.3125,15.1428223 10.7321777,15.5625 11.25,15.5625 Z" id="Path" fill="#FFC845"></path>
                <path d="M44.25,22.125 L44.25,14.625 C44.25,12.0402832 42.1472167,9.9375 39.5625,9.9375 L34.3125,9.9375 L34.3125,2.8125 C34.3125,1.26159666 33.0509033,0 31.5,0 L14.0625,0 C12.5115967,0 11.25,1.26159666 11.25,2.8125 L11.25,6.1875 L8.4375,6.1875 C6.88659666,6.1875 5.625,7.44909666 5.625,9 L5.625,9.9375 L4.6875,9.9375 C2.10278325,9.9375 0,12.0402832 0,14.625 L0,43.3125 C0,45.8972167 2.10278325,48 4.6875,48 L33.375,48 C35.6385498,48 37.5325928,46.387207 37.9680176,44.25 L39.5625,44.25 C42.1472167,44.25 44.25,42.1472167 44.25,39.5625 L44.25,37.125 L45.1875,37.125 C46.7384033,37.125 48,35.8634033 48,34.3125 L48,25.875 C48,23.807373 46.317627,22.125 44.25,22.125 Z M46.125,25.875 C46.125,26.9106445 45.2856445,27.75 44.25,27.75 L44.25,24 C45.2838135,24 46.125,24.8411865 46.125,25.875 Z M39.5625,11.8125 C41.1134033,11.8125 42.375,13.0740967 42.375,14.625 L42.375,27.75 L38.0625,27.75 L38.0625,22.125 C38.0625,19.8614502 36.449707,17.9674073 34.3125,17.5319824 L34.3125,11.8125 L39.5625,11.8125 Z M13.125,2.8125 C13.125,2.29541016 13.5454102,1.875 14.0625,1.875 L31.5,1.875 C32.0170898,1.875 32.4375,2.29541016 32.4375,2.8125 L32.4375,17.4375 L28.125,17.4375 L28.125,9 C28.125,7.44909666 26.8634033,6.1875 25.3125,6.1875 L13.125,6.1875 L13.125,2.8125 Z M22.5,17.4375 L22.5,8.0625 L25.3125,8.0625 C25.8295898,8.0625 26.25,8.48291016 26.25,9 L26.25,17.4375 L22.5,17.4375 Z M16.875,17.4375 L16.875,8.0625 L20.625,8.0625 L20.625,17.4375 L16.875,17.4375 Z M7.5,9 C7.5,8.48291016 7.92041016,8.0625 8.4375,8.0625 L15,8.0625 L15,17.4375 L7.5,17.4375 L7.5,9 Z M4.6875,11.8125 L5.625,11.8125 L5.625,17.4375 L4.88818359,17.4375 C3.33874509,17.4375 1.875,16.3154297 1.875,14.625 C1.875,13.0740967 3.13659666,11.8125 4.6875,11.8125 Z M33.375,46.125 L4.6875,46.125 C3.13659666,46.125 1.875,44.8634033 1.875,43.3125 L1.875,18.3171386 C2.71325681,18.9415283 3.76611328,19.3125 4.88818359,19.3125 L33.375,19.3125 C34.9259033,19.3125 36.1875,20.5740967 36.1875,22.125 L36.1875,27.75 L29.625,27.75 C28.0740967,27.75 26.8125,29.0115967 26.8125,30.5625 L26.8125,34.3125 C26.8125,35.8634033 28.0740967,37.125 29.625,37.125 L36.1875,37.125 L36.1875,43.3125 C36.1875,44.8634033 34.9259033,46.125 33.375,46.125 Z M42.375,39.5625 C42.375,41.1134033 41.1134033,42.375 39.5625,42.375 L38.0625,42.375 L38.0625,37.125 L42.375,37.125 L42.375,39.5625 Z M45.1875,35.25 L29.625,35.25 C29.1079102,35.25 28.6875,34.8295898 28.6875,34.3125 L28.6875,30.5625 C28.6875,30.0454102 29.1079102,29.625 29.625,29.625 L44.25,29.625 C44.9190674,29.625 45.5610352,29.4499511 46.125,29.1229248 L46.125,34.3125 C46.125,34.8295898 45.7045898,35.25 45.1875,35.25 Z" id="Shape" fill="#00A76A" fill-rule="nonzero"></path>
                <path d="M39.5625,31.5 L35.25,31.5 C34.7321777,31.5 34.3125,31.9196777 34.3125,32.4375 C34.3125,32.9553223 34.7321777,33.375 35.25,33.375 L39.5625,33.375 C40.0803223,33.375 40.5,32.9553223 40.5,32.4375 C40.5,31.9196777 40.0803223,31.5 39.5625,31.5 Z" id="Path" fill="#FFC845"></path>
            </g>
        </g>
    </g>
</svg>